<svg xmlns="http://www.w3.org/2000/svg" viewbox="0 0 20 20" width="20" height="20">
        <path d="M14.653,16.794c-1.531,0-2.915-0.667-4.112-1.983l-0.025-0.032l0,0c0,0-0.126-0.158-0.457-0.158
	c-0.33,0-0.456,0.158-0.461,0.165l-0.021,0.025c-1.197,1.316-2.58,1.983-4.112,1.983c-0.151,0-0.291-0.006-0.417-0.014
	c-1.055-0.069-1.896-0.481-2.498-1.225c-1.3-1.604-1.063-3.192-0.979-4.13c0.054-0.372,0.181-0.922,0.329-1.559
	c0.228-0.984,0.512-2.209,0.604-3.166c0.038-0.396,0.049-0.957,0.059-1.453c0.02-1.03,0.034-1.643,0.138-1.786
	c0.136-0.189,0.152-0.217,0.354-0.217c0.274,0,0.391,0.071,0.479,0.265c0.078,0.171,0.171,2.511,0.276,5.754
	c1.836,0.22,3.917,1.528,5.232,3.35c0.09,0.126,0.169,0.265,0.246,0.399c0.11,0.196,0.215,0.381,0.342,0.506
	c0.084,0.083,0.199,0.129,0.352,0.142h0.153c0.152-0.013,0.268-0.059,0.352-0.142c0.127-0.125,0.231-0.31,0.342-0.506
	c0.076-0.135,0.155-0.273,0.246-0.399c1.314-1.822,3.396-3.13,5.232-3.35c0.104-3.243,0.197-5.583,0.275-5.754
	c0.089-0.194,0.206-0.305,0.48-0.305c0.201,0,0.217,0.067,0.353,0.257c0.104,0.143,0.118,0.756,0.138,1.786
	c0.01,0.496,0.021,1.057,0.059,1.453c0.093,0.957,0.293,2.182,0.521,3.166c0.147,0.637,0.274,1.187,0.328,1.559
	c0.004,0.025,0.322,2.525-0.979,4.13c-0.603,0.743-1.359,1.155-2.414,1.225C14.944,16.788,14.805,16.794,14.653,16.794z"/>
    </svg>

    