<?xml version="1.0" encoding="iso-8859-1"?>
<svg xmlns="http://www.w3.org/2000/svg">
  <filter xmlns="http://www.w3.org/2000/svg" id="dropshadow" height="130%">
    <feGaussianBlur in="SourceAlpha" stdDeviation="1"/>
    <feOffset dx="0" dy="1" result="offsetblur"/>
    <feComponentTransfer>
      <feFuncA type="linear" slope="0.8"/>
    </feComponentTransfer>
    <feMerge>
      <feMergeNode/>
      <feMergeNode in="SourceGraphic"/>
    </feMerge>
  </filter>

  <symbol id="logo-secondary" viewBox="0 0 44 30">
    <path d="M37.8260352,0 L29.9700044,21.3356893 L20.7166667,0 L16.6759317,0 L16.6759317,0.130383023 C17.5703934,0.945134576 18.4335404,2.51200828 19.2016046,4.20015528 L28.7093168,26.1181677 L29.049793,26.1181677 L37.8719979,2.62303313 L37.8719979,25.6900104 L40.9937888,25.6900104 L40.9937888,0 L37.8260352,0 Z M5.24440994,15.6045031 L10.2339183,4.08279188 L15.238266,15.6045031 L5.24440994,15.6045031 Z M7.76490683,0 L7.76433747,0.130383023 C8.62406832,0.889337474 9.30445135,2.0952381 9.78328157,3.0876294 L0,25.6900104 L0.952795031,25.6900104 L4.94627329,16.4686853 L15.6112319,16.4686853 L19.6121118,25.6900104 L22.9451346,25.6900104 L11.8050725,0 L7.76490683,0 Z"></path>
  </symbol>

  <symbol id="logo" viewBox="0 0 159 26">
    <path d="M80.5754702,13.167714 L77.7640271,13.167714 L77.7640271,0.880622016 L80.0722057,0.880622016 C84.6855636,0.880622016 86.4065003,2.51638162 86.4065003,7.46444945 C86.4065003,11.573943 84.6429751,13.167714 80.5754702,13.167714 L80.5754702,13.167714 Z M88.9828067,20.9224261 L83.7612125,13.167714 C87.4094303,12.1191962 89.7997867,10.0647494 89.7997867,6.70925277 C89.7997867,2.64174787 86.3207234,0.419346206 80.0722057,0.419346206 L74.7060504,0.419346206 L74.7060504,25.580772 L77.7640271,25.580772 L77.7640271,13.6289898 L80.5772697,13.6289898 L86.6998213,22.9804721 C88.0350618,25.019923 89.0062004,25.6653492 90.6839487,25.6653492 L92.9027513,25.6653492 L92.9027513,25.5393831 C91.6448899,24.7008089 90.9562753,23.8532371 88.9828067,20.9224261 L88.9828067,20.9224261 Z M130.771756,21.6278362 L121.573232,0.419346206 L117.615498,0.419346206 L117.615498,0.546511969 C118.491862,1.34489702 119.337034,2.87928391 120.089232,4.53303867 L120.089232,25.6653492 L120.635085,25.6653492 L120.635085,5.79090002 L129.401125,26.0000591 L129.735235,26.0000591 L138.375309,2.98845452 L138.375309,25.580772 L141.433285,25.580772 L141.433285,0.419346206 L138.750208,0.419346206 L130.771756,21.6278362 Z M102.60214,25.0355188 L98.9941113,25.0355188 L98.9941113,12.9571706 C101.257902,12.9571706 104.072344,13.041148 108.76908,13.4184464 L108.76908,11.9518413 C104.072344,12.3291397 101.257902,12.4131171 98.9941113,12.4131171 L98.9941113,0.964599407 L102.26623,0.964599407 C103.734035,0.964599407 107.015152,1.17394305 109.950761,2.26384961 L109.99275,2.26384961 L109.940564,0.419346206 L95.9355348,0.419346206 L95.9355348,25.580772 L110.317863,25.580772 L110.535004,23.4843364 L110.493015,23.4843364 C107.054141,24.7997822 104.111334,25.0355188 102.60214,25.0355188 L102.60214,25.0355188 Z M161.314333,23.4843364 C157.876058,24.7997822 154.933251,25.0355188 153.423457,25.0355188 L149.815429,25.0355188 L149.815429,12.9571706 C152.079819,12.9571706 154.893661,13.041148 159.590997,13.4184464 L159.590997,11.9518413 C154.893661,12.3291397 152.079819,12.4131171 149.815429,12.4131171 L149.815429,0.964599407 L153.088148,0.964599407 C154.555353,0.964599407 157.837069,1.17394305 160.772679,2.26384961 L160.814667,2.26384961 L160.762481,0.419346206 L146.757452,0.419346206 L146.757452,25.580772 L161.13978,25.580772 L161.356321,23.4843364 L161.314333,23.4843364 Z M59.4173666,25.5387833 C52.6235957,25.5387833 51.8671993,19.2062882 51.8671993,12.9997592 C51.8671993,6.79383 52.6235957,0.461334901 59.4173666,0.461334901 C66.2111375,0.461334901 66.9675339,6.79383 66.9675339,12.9997592 C66.9675339,19.2062882 66.2111375,25.5387833 59.4173666,25.5387833 L59.4173666,25.5387833 Z M59.4173666,5.90909091e-05 C52.7915505,5.90909091e-05 48.4739129,5.49338012 48.4739129,12.9997592 C48.4739129,20.5061382 52.7915505,26.0000591 59.4173666,26.0000591 C66.0431827,26.0000591 70.3608203,20.5061382 70.3608203,12.9997592 C70.3608203,5.49338012 66.0431827,5.90909091e-05 59.4173666,5.90909091e-05 L59.4173666,5.90909091e-05 Z M32.9494926,25.0775075 L28.9641655,25.0775075 L28.9641655,0.922610712 L31.3557216,0.922610712 C40.2885167,0.922610712 41.6735438,6.08062202 41.6735438,12.6644494 C41.6735438,19.5415979 40.3305054,25.0775075 32.9494926,25.0775075 L32.9494926,25.0775075 Z M31.6916312,0.419346206 L25.9061888,0.419346206 L25.9061888,25.580772 L32.9075039,25.580772 C40.5818377,25.580772 45.06743,19.8775075 45.06743,12.5384834 C45.06743,5.24204779 40.8337699,0.419346206 31.6916312,0.419346206 L31.6916312,0.419346206 Z M4.7630812,15.9827561 L9.89769881,4.12514849 L15.0437133,15.9827561 L4.7630812,15.9827561 Z M7.60511604,0.419346206 L7.6045162,0.546511969 C8.44608963,1.29031172 9.11311004,2.47139373 9.58158392,3.44313211 L-0.000236363636,25.580772 L0.606800203,25.580772 L4.51774726,16.5490036 L15.290247,16.5490036 L19.2083921,25.580772 L22.4727132,25.580772 L11.5622507,0.419346206 L7.60511604,0.419346206 Z" />
  </symbol>

  <symbol id="angle-left" viewbox="0 0 20 20">
    <path style="fill:none;stroke-linecap:round;stroke-linejoin:round;stroke-miterlimit:10;" d="M14.244,1.5l-8.489,8.503L14.21,18.5"/>
  </symbol>
  <symbol id="angle-right" viewbox="0 0 20 20">
    <path style="fill:none;stroke-linecap:round;stroke-linejoin:round;stroke-miterlimit:10;" d="M5.755,18.5l8.489-8.503L5.79,1.5"/>
  </symbol>

  <symbol id='angle-down' viewbox="0 0 20 20">
    <path style="fill:none;stroke-linecap:round;stroke-linejoin:round;stroke-miterlimit:10;" d="M5.755,18.5l8.489-8.503L5.79,1.5" transform="rotate(90 10 10)"/>
  </symbol>

  <symbol id='angle-up' viewbox="0 0 20 20">
    <path style="fill:none;stroke-linecap:round;stroke-linejoin:round;stroke-miterlimit:10;" d="M5.755,18.5l8.489-8.503L5.79,1.5" transform="rotate(-90 10 10)"/>
  </symbol>

  <symbol id="arrow-left" viewbox="0 0 20 20">
    <path style="fill:none;stroke-linecap:round;stroke-linejoin:round;stroke-miterlimit:10;" d="M1.5,10h17 M7.949,3.542L1.5,10.002l6.423,6.455"/>
  </symbol>

  <symbol id="arrow-left-round" viewbox="0 0 20 20">
    <path d="M10.014,18.599c-0.213,0-0.429-0.008-0.645-0.023c-2.298-0.169-4.393-1.221-5.898-2.96
			c-1.505-1.739-2.241-3.959-2.072-6.249c0.329-4.466,4.1-7.964,8.586-7.964c0.214,0,0.43,0.008,0.646,0.024
			c2.298,0.169,4.393,1.22,5.897,2.959c1.506,1.739,2.241,3.958,2.073,6.249C18.271,15.101,14.5,18.599,10.014,18.599
			C10.014,18.599,10.014,18.599,10.014,18.599z"/>

    <path style="stroke-linecap:round;stroke-linejoin:round;stroke-miterlimit:10;" d="M5.582,10h8.837 M8.934,6.643l-3.353,3.358l3.339,3.355"/>
  </symbol>

  <symbol id="arrow-right" viewbox="0 0 20 20">
    <path style="fill:none;stroke-linecap:round;stroke-linejoin:round;stroke-miterlimit:10;" d="M18.5,10h-17 M12.051,16.457L18.5,10l-6.423-6.458"/>
  </symbol>

    <symbol id="arrow-right-round" viewbox="0 0 20 20">

        <path d="M10.016,18.6c-0.214,0-0.43-0.009-0.646-0.024c-2.298-0.169-4.392-1.22-5.897-2.959S1.23,11.657,1.398,9.367
			C1.729,4.901,5.5,1.402,9.986,1.402c0.213,0,0.429,0.008,0.645,0.024c2.297,0.169,4.392,1.221,5.898,2.96
			c1.505,1.739,2.241,3.958,2.072,6.249C18.272,15.101,14.501,18.6,10.016,18.6C10.016,18.6,10.016,18.6,10.016,18.6z"/>

        <path style="stroke-linecap:round;stroke-linejoin:round;stroke-miterlimit:10;" d="
		M14.418,10.001H5.581 M11.065,13.357L14.418,10l-3.339-3.355"/>

    </symbol>

    <symbol id="arrow-down" viewbox="0 0 20 20">
        <path style="fill:none;stroke-linecap:round;stroke-linejoin:round;stroke-miterlimit:10;" d="
            M18.5,10h-17 M12.051,16.457L18.5,10l-6.423-6.458"
              transform="rotate(90 10 10)"/>
    </symbol>

    <symbol id="box" viewbox="0 0 20 20">
        <path style="stroke-linecap:round;stroke-linejoin:round;stroke-miterlimit:10;" d="
	M17.363,14.243L10,18.5l-7.362-4.257V5.757L10,1.5l7.364,4.257V14.243z M10.01,9.987l-7.373-4.23 M10.001,9.952V18.5 M10.01,9.987
	l7.354-4.23 M5.354,4.187l7.48,4.18l0.013,3.163l1.852-1.089V7.298L7.219,3.104"/>
    </symbol>

    <symbol id="bra" viewbox="0 0 20 20">
        <path d="M14.653,16.794c-1.531,0-2.915-0.667-4.112-1.983l-0.025-0.032l0,0c0,0-0.126-0.158-0.457-0.158
	c-0.33,0-0.456,0.158-0.461,0.165l-0.021,0.025c-1.197,1.316-2.58,1.983-4.112,1.983c-0.151,0-0.291-0.006-0.417-0.014
	c-1.055-0.069-1.896-0.481-2.498-1.225c-1.3-1.604-1.063-3.192-0.979-4.13c0.054-0.372,0.181-0.922,0.329-1.559
	c0.228-0.984,0.512-2.209,0.604-3.166c0.038-0.396,0.049-0.957,0.059-1.453c0.02-1.03,0.034-1.643,0.138-1.786
	c0.136-0.189,0.152-0.217,0.354-0.217c0.274,0,0.391,0.071,0.479,0.265c0.078,0.171,0.171,2.511,0.276,5.754
	c1.836,0.22,3.917,1.528,5.232,3.35c0.09,0.126,0.169,0.265,0.246,0.399c0.11,0.196,0.215,0.381,0.342,0.506
	c0.084,0.083,0.199,0.129,0.352,0.142h0.153c0.152-0.013,0.268-0.059,0.352-0.142c0.127-0.125,0.231-0.31,0.342-0.506
	c0.076-0.135,0.155-0.273,0.246-0.399c1.314-1.822,3.396-3.13,5.232-3.35c0.104-3.243,0.197-5.583,0.275-5.754
	c0.089-0.194,0.206-0.305,0.48-0.305c0.201,0,0.217,0.067,0.353,0.257c0.104,0.143,0.118,0.756,0.138,1.786
	c0.01,0.496,0.021,1.057,0.059,1.453c0.093,0.957,0.293,2.182,0.521,3.166c0.147,0.637,0.274,1.187,0.328,1.559
	c0.004,0.025,0.322,2.525-0.979,4.13c-0.603,0.743-1.359,1.155-2.414,1.225C14.944,16.788,14.805,16.794,14.653,16.794z"/>
    </symbol>

    <symbol id="camera" viewbox="0 0 20 20">
        <path style="fill-rule:evenodd;clip-rule:evenodd;" d="M1.5,15.495c0-3.199,0-6.398,0-9.596
			c0.121-0.37,0.327-0.665,0.721-0.777c0.12-0.034,0.25-0.048,0.375-0.049C3.648,5.069,4.699,5.075,5.75,5.064
			c0.102-0.001,0.235-0.068,0.298-0.148c0.2-0.256,0.37-0.536,0.56-0.801c0.195-0.273,0.454-0.411,0.804-0.409
			c1.726,0.008,3.452,0.008,5.178,0c0.343-0.001,0.601,0.13,0.794,0.396c0.198,0.272,0.374,0.561,0.579,0.828
			c0.057,0.074,0.18,0.134,0.272,0.134c1.057,0.01,2.113,0.005,3.17,0.006c0.672,0.001,1.095,0.426,1.095,1.1c0,3.01,0,6.02,0,9.029
			c0,0.674-0.42,1.093-1.098,1.094c-4.935,0-9.869,0-14.804,0c-0.549,0-0.902-0.216-1.084-0.728L1.5,15.495z"/>
        <path style="fill-rule:evenodd;clip-rule:evenodd;fill:none;" d="M4.411,8.131c-0.304,0.021-0.555-0.032-0.735-0.27
			C3.383,7.475,3.584,6.897,4.059,6.8c0.181-0.037,0.375-0.039,0.56-0.021c0.373,0.037,0.639,0.346,0.625,0.693
			C5.229,7.832,4.959,8.102,4.583,8.13C4.517,8.136,4.45,8.131,4.411,8.131z"/>

        <path style="fill-rule:evenodd;clip-rule:evenodd;fill:none;" d="M9.842,14.09c-0.939-0.004-1.821-0.374-2.482-1.042
			c-0.661-0.668-1.023-1.552-1.018-2.489C6.352,8.624,7.929,7.05,9.858,7.05h0.007c1.933,0.004,3.507,1.584,3.51,3.523
			c0.001,0.938-0.364,1.819-1.027,2.483c-0.665,0.667-1.55,1.033-2.491,1.033H9.842z"/>
    </symbol>

    <symbol id="cart" viewbox="0 0 20 20">
        <path style="fill-rule:evenodd;clip-rule:evenodd;fill:none;stroke-linecap:round;stroke-linejoin:round;stroke-miterlimit:10;" d="
	M15.9,14.49l-7.446-0.004c0,0-0.729,0.058-1.091-0.252c-0.195-0.168-0.292-0.654-0.292-0.654L4.689,4.353
	c0,0-0.114-0.409-0.388-0.717c-0.328-0.29-0.923-0.298-0.923-0.298L1.5,3.333 M6.761,12.387h9.089l2.65-6.609L5.058,5.774
	 M8.237,14.56c-0.582,0.001-1.053,0.474-1.052,1.056s0.474,1.054,1.056,1.052c0.582-0.001,1.053-0.474,1.052-1.056
	C9.292,15.029,8.819,14.558,8.237,14.56z M15.106,14.545c-0.582,0.001-1.053,0.474-1.052,1.056s0.474,1.054,1.057,1.052
	c0.582-0.001,1.053-0.474,1.052-1.056C16.161,15.015,15.688,14.544,15.106,14.545z"/>
    </symbol>

    <symbol id="chat-bubble" viewbox="0 0 20 20">
        <path style="fill-rule:evenodd;clip-rule:evenodd;" d="M3.974,16.392c0.397-0.525,0.652-1.156,0.779-1.927
				c0.025-0.155,0.022-0.448-0.291-0.662c-0.942-0.653-1.608-1.379-2.033-2.219c-0.81-1.596-0.727-3.181,0.245-4.71
				C3.364,5.789,4.397,4.95,5.832,4.308c0.996-0.445,2.075-0.717,3.207-0.807l0.735-0.062l0.485,0.002l0.734,0.061
				c2.268,0.219,4.062,0.981,5.484,2.331c0.896,0.849,1.433,1.838,1.597,2.94c0.178,1.193-0.105,2.333-0.841,3.387
				c-0.664,0.954-1.578,1.703-2.793,2.289c-1.138,0.549-2.407,0.869-3.774,0.953c-0.221,0.014-0.443,0.021-0.663,0.021
				c-0.91,0-1.838-0.118-2.756-0.351C7.216,15.063,7.1,15.05,7.068,15.05c-0.146,0-0.289,0.039-0.403,0.109l-0.338,0.208
				c-0.427,0.267-0.866,0.541-1.334,0.712C4.645,16.207,4.307,16.311,3.974,16.392z"/>
    </symbol>

    <symbol id="checked" viewbox="0 0 20 20">
        <polyline style="fill-rule:evenodd;clip-rule:evenodd;fill:none;stroke-linecap:round;stroke-linejoin:round;stroke-miterlimit:10;" points="
	1.5,11.034 8.175,17.121 18.5,2.879 "/>
    </symbol>
    <symbol id="checked-round" viewbox="0 0 20 20">

        <path d="M10.001,18.599c-4.745,0-8.615-3.848-8.626-8.578C1.37,7.724,2.262,5.563,3.886,3.935
				c1.625-1.628,3.79-2.528,6.093-2.533c4.765,0,8.634,3.848,8.646,8.578c0.011,4.74-3.849,8.607-8.604,8.619H10.001z"/>

        <polyline style="fill-rule:evenodd;clip-rule:evenodd;stroke-linecap:round;stroke-linejoin:round;stroke-miterlimit:10;" points="
		5.6,10.533 9.04,13.67 14.362,6.33 	"/>

    </symbol>
    <symbol id="clock-2">
        <path style="fill-rule:evenodd;clip-rule:evenodd;fill:none;stroke-miterlimit:10;" d="
		M9.435,18.5c-0.245-0.032-0.492-0.059-0.735-0.1c-2.617-0.443-4.619-1.802-6.006-4.06c-0.648-1.056-1.032-2.212-1.146-3.444
		C1.312,8.364,2.033,6.13,3.751,4.246C5.116,2.75,6.822,1.859,8.826,1.582c3.938-0.545,7.663,1.673,9.099,5.347
		c0.298,0.76,0.482,1.548,0.54,2.364c0.004,0.049,0.021,0.096,0.031,0.145c0,0.376,0,0.753,0,1.128
		c-0.014,0.109-0.027,0.217-0.04,0.327c-0.141,1.233-0.503,2.397-1.155,3.456c-1.388,2.254-3.389,3.61-6.003,4.053
		c-0.243,0.041-0.49,0.067-0.734,0.1C10.187,18.5,9.811,18.5,9.435,18.5z"/>

        <circle style="fill-rule:evenodd;clip-rule:evenodd;" cx="10.02" cy="10.304" r="0.925"/>

        <polyline style="fill-rule:evenodd;clip-rule:evenodd;fill:none;stroke-linecap:round;stroke-linejoin:round;stroke-miterlimit:10;" points="
			10.091,4.625 10.091,10.28 7.246,13.647 		"/>

    </symbol>

    <symbol id="clock" viewbox="0 0 20 20">
        <path style="fill-rule:evenodd;clip-rule:evenodd;fill:none;stroke-linecap:round;stroke-linejoin:round;stroke-miterlimit:10;" d="
		M9.424,18.478c-0.245-0.033-0.491-0.059-0.735-0.1c-2.613-0.443-4.612-1.799-5.998-4.055c-0.647-1.054-1.031-2.209-1.145-3.439
		c-0.234-2.53,0.485-4.761,2.202-6.642c1.363-1.494,3.067-2.383,5.068-2.66c3.932-0.545,7.652,1.671,9.086,5.339
		c0.938,2.398,0.735,5.205-0.624,7.409c-1.385,2.251-3.384,3.606-5.994,4.048C10.671,18.494,10.05,18.527,9.424,18.478
		C9.179,18.444,9.8,18.478,9.424,18.478z"/>
        <circle style="fill-rule:evenodd;clip-rule:evenodd;" cx="9.867" cy="10" r="0.923"/>

        <polyline style="fill-rule:evenodd;clip-rule:evenodd;fill:none;stroke-linecap:round;stroke-linejoin:round;stroke-miterlimit:10;" points="
		9.937,4.364 9.937,9.881 7.303,12.997 	"/>

        <line style="fill-rule:evenodd;clip-rule:evenodd;fill:none;stroke-linecap:round;stroke-linejoin:round;stroke-miterlimit:10;" x1="17.366" y1="9.957" x2="18.498" y2="9.957"/>

        <line style="fill-rule:evenodd;clip-rule:evenodd;fill:none;stroke-linecap:round;stroke-linejoin:round;stroke-miterlimit:10;" x1="1.502" y1="9.957" x2="2.633" y2="9.957"/>

        <line style="fill-rule:evenodd;clip-rule:evenodd;fill:none;stroke-linecap:round;stroke-linejoin:round;stroke-miterlimit:10;" x1="9.992" y1="1.577" x2="9.992" y2="2.708"/>

        <line style="fill-rule:evenodd;clip-rule:evenodd;fill:none;stroke-linecap:round;stroke-linejoin:round;stroke-miterlimit:10;" x1="9.992" y1="17.333" x2="9.992" y2="18.464"/>
    </symbol>
    <symbol id="diamond" viewbox="0 0 20 20">
        <path style="stroke-miterlimit:10;" d="M18.5,7.411c0-0.014-0.011-0.093-0.023-0.121
	l-2.369-4.109c-0.048-0.112-0.16-0.187-0.284-0.187H4.178c-0.125,0-0.236,0.074-0.284,0.187L1.523,7.291
	C1.511,7.318,1.5,7.397,1.5,7.411c0,0.006,0.03,0.149,0.076,0.202l8.193,9.252c0.007,0.008,0.019,0.005,0.025,0.013
	c0.022,0.02,0.04,0.038,0.067,0.052c0.005,0.003,0.006,0.013,0.014,0.015c0.04,0.017,0.083,0.025,0.123,0.025
	c0.041,0,0.083-0.009,0.124-0.025c0.008-0.002,0.009-0.012,0.015-0.016c0.027-0.013,0.045-0.031,0.065-0.051
	c0.008-0.008,0.021-0.005,0.027-0.013l8.193-9.252C18.503,7.521,18.5,7.417,18.5,7.411z"/>
        <line style="fill:none;stroke-miterlimit:10;" x1="1.512" y1="7.378" x2="18.491" y2="7.378"/>
        <polyline style="fill:none;stroke-miterlimit:10;" points="12.263,3.009 14.141,7.348
	14.141,7.403 10.034,17.006 "/>
        <polyline style="fill:none;stroke-miterlimit:10;" points="9.999,17.006 5.894,7.403 5.894,7.348
	7.771,3.009 "/>
    </symbol>
    <symbol id="document" viewbox="0 0 20 20">
        <path style="stroke-linecap:round;stroke-linejoin:round;stroke-miterlimit:10;" d="
		M3.993,18.5v-17h12.014v17H3.993z"/>

        <line style="fill:none;stroke-linecap:round;stroke-linejoin:round;stroke-miterlimit:10;" x1="6.373" y1="4.692" x2="13.627" y2="4.692"/>

        <line style="fill:none;stroke-linecap:round;stroke-linejoin:round;stroke-miterlimit:10;" x1="6.373" y1="7.412" x2="13.627" y2="7.412"/>

        <line style="fill:none;stroke-linecap:round;stroke-linejoin:round;stroke-miterlimit:10;" x1="6.373" y1="10.132" x2="13.627" y2="10.132"/>

        <line style="fill:none;stroke-linecap:round;stroke-linejoin:round;stroke-miterlimit:10;" x1="6.373" y1="12.852" x2="13.627" y2="12.852"/>

        <line style="fill:none;stroke-linecap:round;stroke-linejoin:round;stroke-miterlimit:10;" x1="6.373" y1="15.572" x2="13.627" y2="15.572"/>
    </symbol>

    <symbol id="dots" viewbox="0 0 20 20">

        <circle style="fill-rule:evenodd;clip-rule:evenodd;" cx="3.737" cy="10" r="1.862"/>

        <circle style="fill-rule:evenodd;clip-rule:evenodd;" cx="10" cy="10" r="1.862"/>

        <circle style="fill-rule:evenodd;clip-rule:evenodd;" cx="16.263" cy="10" r="1.862"/>

    </symbol>

    <symbol id="empty-cart" viewbox="0 0 20 20">
        <path style="fill-rule:evenodd;clip-rule:evenodd;fill:none;stroke-linecap:round;stroke-linejoin:round;stroke-miterlimit:10;" d="
	M15.9,14.643H8.455c0,0-0.729,0.053-1.091-0.257c-0.195-0.168-0.292-0.654-0.292-0.654L4.689,4.504c0,0-0.114-0.408-0.388-0.717
	c-0.328-0.29-0.923-0.304-0.923-0.304H1.5 M6.845,12.538h9.005l2.65-6.609l-2.898-0.003 M8.237,14.711
	c-0.582,0.001-1.053,0.474-1.052,1.056s0.474,1.054,1.056,1.052c0.582-0.001,1.053-0.474,1.052-1.056
	C9.292,15.18,8.819,14.709,8.237,14.711z M15.106,14.696c-0.582,0.001-1.053,0.474-1.052,1.056c0.001,0.583,0.474,1.054,1.057,1.053
	c0.582-0.002,1.053-0.475,1.051-1.057C16.161,15.166,15.688,14.695,15.106,14.696z M5.044,5.926h2.898 M11.701,9.012V3.181
	 M13.951,6.866l-2.249,2.238l-2.25-2.247"/>
    </symbol>

    <symbol id="email" viewbox="0 0 20 20">
        <path style="stroke-linecap:round;stroke-linejoin:round;stroke-miterlimit:10;" d="
	M18.5,16.007h-17V3.993h17V16.007z M18.498,5.667l-4.753,4.094l-1.3,1.136c-0.277,0.237-0.545,0.49-0.843,0.699
	c-0.862,0.605-2.031,0.607-2.834,0.042C7.965,11.072,6.54,9.761,6.54,9.761L1.506,5.672 M13.188,10.248l5.303,4.839 M7.074,10.248
	l-5.569,4.787"/>
    </symbol>

    <symbol id="fb" viewbox="0 0 20 20">
        <path d="M7.969,7.361V5.75c0-2.361,1.828-4.25,4.063-4.25h2.728v2.972h-2.495c-0.691,0-0.9,0.667-0.9,1.222v1.667h3.396l-0.349,3.25
	h-3.047V18.5H7.969v-7.889H5.241v-3.25H7.969z"/>
    </symbol>

    <symbol id="filter" viewbox="0 0 27 27">
        <path d="M7,7.05000906 L7,5.5 C7,5.22385763 7.22385763,5 7.5,5 C7.77614237,5 8,5.22385763 8,5.5 L8,7.05000906 C9.14112016,7.28164422 10,8.29052104 10,9.5 C10,10.709479 9.14112016,11.7183558 8,11.9499909 L8,22.5 C8,22.7761424 7.77614237,23 7.5,23 C7.22385763,23 7,22.7761424 7,22.5 L7,11.9499909 C5.85887984,11.7183558 5,10.709479 5,9.5 C5,8.29052104 5.85887984,7.28164422 7,7.05000906 Z M7,10.9146471 C7.15638946,10.9699229 7.32468229,11 7.5,11 C7.67531771,11 7.84361054,10.9699229 8,10.9146471 C8.58264059,10.7086698 9,10.1530747 9,9.5 C9,8.84692532 8.58264059,8.29133016 8.00009296,8.08538571 C7.84361054,8.03007711 7.67531771,8 7.5,8 C7.32468229,8 7.15638946,8.03007711 7,8.08535285 C6.41735941,8.29133016 6,8.84692532 6,9.5 C6,10.1530747 6.41735941,10.7086698 6.99990704,10.9146143 Z M13,16.0500091 L13,5.5 C13,5.22385763 13.2238576,5 13.5,5 C13.7761424,5 14,5.22385763 14,5.5 L14,16.0500091 C15.1411202,16.2816442 16,17.290521 16,18.5 C16,19.709479 15.1411202,20.7183558 14,20.9499909 L14,22.5 C14,22.7761424 13.7761424,23 13.5,23 C13.2238576,23 13,22.7761424 13,22.5 L13,20.9499909 C11.8588798,20.7183558 11,19.709479 11,18.5 C11,17.290521 11.8588798,16.2816442 13,16.0500091 Z M13,19.9146471 C13.1563895,19.9699229 13.3246823,20 13.5,20 C13.6753177,20 13.8436105,19.9699229 14,19.9146471 C14.5826406,19.7086698 15,19.1530747 15,18.5 C15,17.8469253 14.5826406,17.2913302 14.000093,17.0853857 C13.8436105,17.0300771 13.6753177,17 13.5,17 C13.3246823,17 13.1563895,17.0300771 13,17.0853529 C12.4173594,17.2913302 12,17.8469253 12,18.5 C12,19.1530747 12.4173594,19.7086698 12.999907,19.9146143 Z M19,7.05000906 L19,5.5 C19,5.22385763 19.2238576,5 19.5,5 C19.7761424,5 20,5.22385763 20,5.5 L20,7.05000906 C21.1411202,7.28164422 22,8.29052104 22,9.5 C22,10.709479 21.1411202,11.7183558 20,11.9499909 L20,22.5 C20,22.7761424 19.7761424,23 19.5,23 C19.2238576,23 19,22.7761424 19,22.5 L19,11.9499909 C17.8588798,11.7183558 17,10.709479 17,9.5 C17,8.29052104 17.8588798,7.28164422 19,7.05000906 Z M18.999907,8.08538571 C18.4173594,8.29133016 18,8.84692532 18,9.5 C18,10.1530747 18.4173594,10.7086698 18.999907,10.9146143 C19.1563895,10.9699229 19.3246823,11 19.5,11 C19.6753177,11 19.8436105,10.9699229 20,10.9146471 C20.5826406,10.7086698 21,10.1530747 21,9.5 C21,8.84692532 20.5826406,8.29133016 20.000093,8.08538571 C19.8436105,8.03007711 19.6753177,8 19.5,8 C19.3246823,8 19.1563895,8.03007711 19,8.08535285 Z" id="path-1"></path>
    </symbol>
    <symbol id="filter-minus" viewbox="0 0 20 20">

        <path style="stroke-linecap:round;stroke-linejoin:round;stroke-miterlimit:10;" d="
			M11.686,12.394c0.001,1.443,0.001,2.911,0.001,4.355v0.897c0,0.073,0,0.143-0.007,0.205c-0.038,0.336-0.226,0.537-0.503,0.537
			c-0.071,0-0.147-0.014-0.226-0.039c-0.418-0.139-1.82-0.851-2.248-1.079c-1.106-0.594-1.264-1.049-1.253-1.846
			c0.021-1.573,0.014-3.172,0.008-4.717c-0.002-0.405-0.003-0.811-0.004-1.216C7.452,9.324,7.384,9.144,7.274,9.022
			c-1.851-2.065-3.737-4.16-5.562-6.187c0,0-0.383-0.39-0.119-0.855C1.722,1.752,1.895,1.64,2.33,1.611h14.461
			c0.078,0.011,0.513-0.05,0.753,0.292c0.265,0.377-0.09,0.907-0.188,1.016l-1.541,1.712"/>
        <path style="stroke-linecap:round;stroke-linejoin:round;stroke-miterlimit:10;" d="
			M11.765,12.443c0.676,0.415,1.472,0.654,2.324,0.652c2.442-0.006,4.417-1.984,4.411-4.419c-0.004-1.782-1.069-3.315-2.598-4.006
			l-0.088-0.039c-0.536-0.229-1.127-0.354-1.747-0.353c-2.441,0.006-4.417,1.984-4.411,4.419c0.004,1.538,0.83,2.91,2.029,3.696
			L11.765,12.443z"/>

        <line style="stroke-linecap:round;stroke-miterlimit:10;" x1="16.395" y1="8.687" x2="11.763" y2="8.687"/>
        <path style="stroke-linecap:round;stroke-linejoin:round;stroke-miterlimit:10;" d="M7.417,9.276
		c0,0,2.28-0.009,2.28,0"/>
    </symbol>

    <symbol id="filter-plus" viewbox="0 0 20 20">

        <path style="stroke-linecap:round;stroke-linejoin:round;stroke-miterlimit:10;" d="
			M11.686,12.394c0.001,1.443,0.001,2.911,0.001,4.355v0.897c0,0.073,0,0.143-0.007,0.205c-0.038,0.336-0.226,0.537-0.503,0.537
			c-0.071,0-0.147-0.014-0.226-0.039c-0.418-0.139-1.82-0.851-2.248-1.079c-1.106-0.594-1.264-1.049-1.253-1.846
			c0.021-1.573,0.014-3.172,0.008-4.717c-0.002-0.405-0.003-0.811-0.004-1.216C7.452,9.324,7.384,9.144,7.274,9.022
			c-1.851-2.065-3.737-4.16-5.562-6.187c0,0-0.383-0.39-0.119-0.855C1.722,1.752,1.895,1.64,2.33,1.611h14.461
			c0.078,0.011,0.513-0.05,0.753,0.292c0.265,0.377-0.09,0.907-0.188,1.016l-1.541,1.712"/>
        <path style="stroke-linecap:round;stroke-linejoin:round;stroke-miterlimit:10;" d="
			M11.765,12.443c0.676,0.415,1.472,0.654,2.324,0.652c2.442-0.006,4.417-1.984,4.411-4.419c-0.004-1.782-1.069-3.315-2.598-4.006
			l-0.088-0.039c-0.536-0.229-1.127-0.354-1.747-0.353c-2.441,0.006-4.417,1.984-4.411,4.419c0.004,1.538,0.83,2.91,2.029,3.696
			L11.765,12.443z"/>


        <line style="stroke-linecap:round;stroke-miterlimit:10;" x1="16.395" y1="8.687" x2="11.763" y2="8.687"/>

        <line style="stroke-linecap:round;stroke-miterlimit:10;" x1="14.078" y1="11.003" x2="14.078" y2="6.371"/>
        <path style="stroke-linecap:round;stroke-linejoin:round;stroke-miterlimit:10;" d="M7.417,9.276
		c0,0,2.28-0.009,2.28,0"/>
    </symbol>

    <symbol id="filter-x" viewbox="0 0 20 20">

        <path d="M11.686,12.394c0.001,1.443,0.001,2.911,0.001,4.355v0.897c0,0.073,0,0.143-0.007,0.205
			c-0.038,0.336-0.226,0.537-0.503,0.537c-0.071,0-0.147-0.014-0.226-0.039c-0.418-0.139-1.82-0.851-2.248-1.079
			c-1.106-0.594-1.264-1.049-1.253-1.846c0.021-1.573,0.014-3.172,0.008-4.717c-0.002-0.405-0.003-0.811-0.004-1.216
			C7.452,9.324,7.384,9.144,7.274,9.022c-1.851-2.065-3.737-4.16-5.562-6.187c0,0-0.383-0.39-0.119-0.855
			C1.722,1.752,1.895,1.64,2.33,1.611h14.461c0.078,0.011,0.513-0.05,0.753,0.292c0.265,0.377-0.09,0.907-0.188,1.016l-1.541,1.712"
                />
        <path d="M11.765,12.443c0.676,0.415,1.472,0.654,2.324,0.652c2.442-0.006,4.417-1.984,4.411-4.419
			c-0.004-1.782-1.069-3.315-2.598-4.006l-0.088-0.039c-0.536-0.229-1.127-0.354-1.747-0.353c-2.441,0.006-4.417,1.984-4.411,4.419
			c0.004,1.538,0.83,2.91,2.029,3.696L11.765,12.443z"/>

        <line x1="15.716" y1="7.05" x2="12.44" y2="10.325"/>
        <line x1="15.716" y1="10.325" x2="12.44" y2="7.05"/>
        <path d="M7.417,9.276c0,0,2.28-0.009,2.28,0"/>

    </symbol>

    <symbol id="get-out" viewbox="0 0 20 20">
        <path style="fill:none;stroke-linecap:round;stroke-linejoin:round;stroke-miterlimit:10;" d="
	M17.773,9.589v7.294c0,0.409-0.337,0.741-0.753,0.741H2.253c-0.416,0-0.753-0.332-0.753-0.741V6.117c0-0.41,0.337-0.742,0.753-0.742
	h4.561"/>
        <path style="stroke-linecap:round;stroke-linejoin:round;stroke-miterlimit:10;" d="
	M12.419,8.491L12.416,11.5L18.5,6.771l-6.141-4.396l-0.018,2.838C10.271,5.324,8.63,6.157,7.456,7.428
	c-2.092,2.265-1.47,5.945-1.47,5.945h0.007C5.993,13.373,6.493,8.776,12.419,8.491z"/>
    </symbol>
    <symbol id="gift">
        <path style="stroke-miterlimit:10;" d="M8.161,9.325H1.289v-3.32h17.423v3.383h-6.846
             M11.856,6.004V19 M8.179,6.004V19 M2.038,9.396V19h15.959V9.396"/>
        	<path fill="none" style="stroke-miterlimit:10;" d="M9.906,6.018c0,0-3.582,0.164-5.007-0.536
        		C3.426,4.759,2.542,3,3.598,1.869c1.106-1.183,2.543-0.554,3.454,0.522C7.968,3.472,8.274,4.582,8.918,5.36
        		C9.242,5.753,9.574,6.022,9.906,6.018c0.298-0.004,0.836-0.25,1.169-0.614c0.773-0.846,1.105-2.624,1.894-3.32
        		c1.076-0.949,2.624-0.977,3.468,0.134c0.843,1.111,0.042,2.877-1.792,3.412C12.914,6.135,9.906,6.018,9.906,6.018z"/>

    </symbol>

    <symbol id="heart" viewbox="0 0 20 20">
        <path style="fill-rule:evenodd;clip-rule:evenodd;stroke-miterlimit:10;" d="M18.492,7.127
	l-0.001,0.023v0.024c0.021,1.664-1.415,3.971-4.043,6.495c-1.792,1.724-3.624,3.064-4.142,3.434
	c-0.083,0.06-0.135,0.095-0.146,0.103c-0.034,0.022-0.084,0.037-0.13,0.037c-0.04,0-0.08-0.01-0.113-0.026
	c-0.02-0.011-0.026-0.016-0.026-0.016l-0.045-0.037L9.821,17.15c-0.024-0.017-0.064-0.045-0.11-0.078
	c-0.626-0.45-2.264-1.668-3.907-3.215c-2.322-2.187-3.75-4.18-4.128-5.764L1.668,8.065C1.557,7.679,1.5,7.277,1.5,6.87
	c0-2.383,1.752-4.114,4.163-4.114c1.404,0,2.94,1.091,3.76,2.219c0.014,0.02,0.03,0.043,0.047,0.071l0.524,0.838l0.532-0.833
	c0.019-0.029,0.036-0.054,0.051-0.076c0.82-1.128,2.564-2.219,3.967-2.219c2.41,0,3.955,1.731,3.955,4.114
	C18.5,6.959,18.498,7.044,18.492,7.127z"/>
    </symbol>
    <symbol id="heart-round" viewbox="0 0 20 20">
        <path d="M10,1.507
		c-4.687,0-8.5,3.81-8.5,8.493c0,4.683,3.813,8.493,8.5,8.493c4.688,0,8.5-3.811,8.5-8.493C18.5,5.317,14.688,1.507,10,1.507
		L10,1.507z"/>

        <!-- in heart path; replace with this, if you want a smaller sized heart
                   M11.803,7.492c1.023,0,1.679,0.734,1.679,1.746c0,0.038-0.001,0.074-0.003,0.109l-0.001,0.01v0.01
                c0.009,0.707-0.601,1.686-1.716,2.757c-0.761,0.732-1.539,1.301-1.759,1.458c-0.036,0.025-0.058,0.04-0.062,0.044
                c-0.015,0.009-0.036,0.016-0.055,0.016c-0.017,0-0.034-0.004-0.048-0.012c-0.008-0.004-0.011-0.007-0.011-0.007l-0.019-0.015
                l-0.011-0.006c-0.01-0.008-0.027-0.02-0.047-0.033c-0.266-0.191-0.961-0.708-1.659-1.365C7.105,11.276,6.5,10.43,6.339,9.758
                L6.336,9.746C6.288,9.582,6.264,9.411,6.264,9.238c0-1.012,0.744-1.746,1.767-1.746c0.596,0,1.249,0.463,1.597,0.942
                c0.006,0.008,0.013,0.019,0.02,0.03L9.871,8.82l0.226-0.354c0.008-0.013,0.016-0.023,0.022-0.032
                C10.466,7.955,11.207,7.492,11.803,7.492
                   -->

        <path fill="currentColor" class="heart" d="M11.803,6.742c-0.697,0-1.426,0.388-1.924,0.845C9.398,7.122,8.726,6.742,8.031,6.742
	  c-1.435,0-2.517,1.073-2.517,2.496c0,0.245,0.034,0.487,0.102,0.718c0.19,0.803,0.853,1.751,1.961,2.795
	  c0.73,0.688,1.457,1.229,1.735,1.428l0.032,0.023l0.044,0.045l0.129,0.063c0.082,0.047,0.224,0.083,0.368,0.083
	  c0.153,0,0.31-0.044,0.441-0.123l0.06-0.035l0.022-0.021l0.029-0.021c0.298-0.213,1.075-0.787,1.844-1.528
	  c0.892-0.856,1.951-2.122,1.945-3.292c0.003-0.056,0.004-0.094,0.004-0.134C14.231,7.792,13.21,6.742,11.803,6.742L11.803,6.742z"
                />
    </symbol>
    <symbol id="instagram" viewbox="0 0 20 20">
      <path d="M10,2.6c2.4,0,2.7,0,3.6,0.1c0.9,0,1.4,0.2,1.7,0.3c0.4,0.2,0.7,0.4,1,0.7c0.3,0.3,0.5,0.6,0.7,1c0.1,0.3,0.3,0.8,0.3,1.7
		c0,0.9,0.1,1.2,0.1,3.6s0,2.7-0.1,3.6c0,0.9-0.2,1.4-0.3,1.7c-0.2,0.4-0.4,0.7-0.7,1c-0.3,0.3-0.6,0.5-1,0.7
		c-0.3,0.1-0.8,0.3-1.7,0.3c-0.9,0-1.2,0.1-3.6,0.1s-2.7,0-3.6-0.1c-0.9,0-1.4-0.2-1.7-0.3c-0.4-0.2-0.7-0.4-1-0.7
		c-0.3-0.3-0.5-0.6-0.7-1c-0.1-0.3-0.3-0.8-0.3-1.7c0-0.9-0.1-1.2-0.1-3.6s0-2.7,0.1-3.6C2.7,5.5,2.9,5,3,4.7c0.2-0.4,0.4-0.7,0.7-1
		C4,3.3,4.3,3.1,4.7,3C5,2.9,5.5,2.7,6.4,2.7C7.3,2.6,7.6,2.6,10,2.6 M10,1C7.6,1,7.2,1,6.3,1.1c-1,0-1.6,0.2-2.2,0.4
		C3.5,1.7,3,2,2.5,2.5C2,3,1.7,3.5,1.5,4.1C1.3,4.7,1.1,5.3,1.1,6.3C1,7.2,1,7.6,1,10c0,2.4,0,2.8,0.1,3.7c0,1,0.2,1.6,0.4,2.2
		c0.2,0.6,0.5,1.1,1,1.6c0.5,0.5,1,0.8,1.6,1c0.6,0.2,1.2,0.4,2.2,0.4c1,0,1.3,0.1,3.7,0.1s2.8,0,3.7-0.1c1,0,1.6-0.2,2.2-0.4
		c0.6-0.2,1.1-0.5,1.6-1c0.5-0.5,0.8-1,1-1.6c0.2-0.6,0.4-1.2,0.4-2.2c0-1,0.1-1.3,0.1-3.7s0-2.8-0.1-3.7c0-1-0.2-1.6-0.4-2.2
		c-0.2-0.6-0.5-1.1-1-1.6c-0.5-0.5-1-0.8-1.6-1c-0.6-0.2-1.2-0.4-2.2-0.4C12.8,1,12.4,1,10,1L10,1z"/>
	<path d="M10,5.4c-2.6,0-4.6,2.1-4.6,4.6s2.1,4.6,4.6,4.6s4.6-2.1,4.6-4.6S12.6,5.4,10,5.4z M10,13c-1.7,0-3-1.3-3-3
		c0-1.7,1.3-3,3-3c1.7,0,3,1.3,3,3C13,11.7,11.7,13,10,13z"/>
	<circle cx="14.8" cy="5.2" r="1.1"/>
    </symbol>

    <symbol id="tag" viewbox="0 0 20 20">

        <path d="M8.949,18.625c-0.201,0-0.389-0.078-0.531-0.22l-6.807-6.774c-0.144-0.142-0.222-0.331-0.223-0.533
		c0-0.202,0.077-0.391,0.22-0.534l8.862-8.905c0.266-0.268,0.729-0.269,1.067-0.27l6.063-0.015c0.549,0,0.995,0.444,0.996,0.991
		l0.013,5.94c0.004,0.475,0.007,0.922-0.263,1.192l-8.862,8.906c-0.142,0.143-0.332,0.221-0.534,0.222H8.949z M14.873,3.312
		c-0.413,0-0.801,0.163-1.092,0.456c-0.6,0.604-0.598,1.583,0.006,2.185c0.292,0.291,0.68,0.45,1.091,0.45
		c0.414-0.001,0.802-0.163,1.094-0.454c0.602-0.606,0.598-1.586-0.005-2.187c-0.291-0.29-0.678-0.45-1.089-0.45
		C14.877,3.312,14.873,3.312,14.873,3.312z"/>

    </symbol>

    <symbol id="search" viewbox="0 0 20 20">
        <line style="stroke-linecap:round;stroke-linejoin:round;stroke-miterlimit:10;" x1="18.396" y1="18.5" x2="13.148" y2="13.484"/>

        <path style="fill-rule:evenodd;clip-rule:evenodd;stroke-linecap:round;stroke-linejoin:round;stroke-miterlimit:10;" d="
		M7.978,15.163c-0.197-0.025-0.396-0.046-0.591-0.079c-2.103-0.356-3.712-1.448-4.827-3.264c-0.521-0.848-0.83-1.778-0.921-2.768
		C1.449,7.017,2.029,5.221,3.41,3.707c1.097-1.203,2.468-1.918,4.079-2.141c3.165-0.438,6.158,1.345,7.313,4.297
		c0.755,1.93,0.592,4.188-0.501,5.963c-1.115,1.812-2.724,2.902-4.825,3.258C8.981,15.178,8.482,15.204,7.978,15.163
		C7.781,15.138,8.28,15.163,7.978,15.163z"/>

    </symbol>

    <symbol id="minus" viewbox="0 0 20 20">
        <line style="fill:none;stroke-linecap:round;stroke-miterlimit:10;" x1="18.5" y1="10" x2="1.5" y2="10"/>
    </symbol>
    <symbol id="minus-round" viewbox="0 0 20 20">
        <path d="M9.975,2.25c2.067,0,4.016,0.805,5.483,2.266c3.034,3.019,3.054,7.936,0.045,10.96c-1.46,1.467-3.405,2.274-5.478,2.274
				c-2.068,0-4.016-0.805-5.483-2.266c-3.034-3.02-3.054-7.937-0.044-10.96C5.957,3.058,7.902,2.25,9.975,2.25"/>

        <line style="stroke-linecap:round;stroke-miterlimit:10;" x1="14.44" y1="9.946" x2="5.523" y2="9.946"/>

    </symbol>

    <symbol id="mobile" viewbox="0 0 20 20">
        <path style="fill-rule:evenodd;clip-rule:evenodd;stroke-miterlimit:10;" d="M9.487,18.5
		c-0.651,0-1.301-0.002-1.951-0.005c-0.21-0.001-0.368-0.015-0.513-0.046c-0.855-0.181-1.348-0.84-1.353-1.809
		c-0.004-0.828-0.003-1.67-0.003-2.483l0-4.231H5.67V8.515c0-1.651-0.001-3.358,0.003-5.037c0.001-0.259,0.03-0.502,0.085-0.722
		c0.181-0.714,0.72-1.18,1.407-1.217c0.588-0.032,1.187-0.032,1.766-0.033c0.151,0,0.301,0,0.452-0.001l0.262-0.001
		C10.073,1.502,10.5,1.5,10.927,1.5c0.583,0,1.066,0.003,1.521,0.011c0.335,0.006,0.627,0.057,0.867,0.153
		c0.663,0.264,1.006,0.851,1.018,1.743c0.011,0.775,0.009,1.563,0.007,2.325c0,0.286-0.001,0.573-0.001,0.859v1.144
		c0,2.854,0,5.805-0.004,8.708c-0.001,0.276-0.024,0.513-0.072,0.723c-0.178,0.781-0.72,1.269-1.449,1.305
		c-0.598,0.029-1.206,0.029-1.794,0.029c-0.161,0-0.321,0-0.481,0C10.188,18.499,9.837,18.5,9.487,18.5z"/>

        <line style="fill-rule:evenodd;clip-rule:evenodd;stroke-miterlimit:10;" x1="5.641" y1="3.87" x2="14.366" y2="3.87"/>

        <line style="fill-rule:evenodd;clip-rule:evenodd;stroke-miterlimit:10;" x1="5.634" y1="15.807" x2="14.366" y2="15.807"/>

        <circle style="fill-rule:evenodd;clip-rule:evenodd;" cx="10.047" cy="16.999" r="0.508"/>
        <path d="M10.047,16.492c-0.28,0-0.508,0.227-0.508,0.507s0.228,0.508,0.508,0.508s0.508-0.228,0.508-0.508
			S10.327,16.492,10.047,16.492L10.047,16.492z"/>

    </symbol>

    <symbol id="money-bag" viewbox="0 0 20 20">

        <path style="fill:none;stroke-linecap:round;stroke-miterlimit:10;" d="M3.098,18.5
				l2.787-1.728l3.165,1.344l0.394,0.171c0.341,0.154,0.751,0.142,1.091-0.069l5.993-3.715c0.543-0.337,0.712-1.056,0.375-1.598
				c-0.336-0.543-1.055-0.711-1.598-0.375l-1.764,1.094"/>

        <path style="fill:none;stroke-linecap:round;stroke-miterlimit:10;" d="M2.925,14.874
		l2.822-1.501c0.183-0.099,0.367-0.179,0.582-0.179h6.369c0.345,0,0.651,0.17,0.842,0.43c0.128,0.173,0.204,0.387,0.204,0.617
		c0,0.575-0.471,1.047-1.046,1.047h-2.531"/>
        <path style="fill:none;stroke-linecap:round;stroke-miterlimit:10;" d="M11.528,5.115H8.48
		c-0.342,0-0.623-0.28-0.623-0.622V4.316c0-0.342,0.28-0.622,0.623-0.622h3.048c0.342,0,0.622,0.28,0.622,0.622v0.177
		C12.15,4.835,11.87,5.115,11.528,5.115z"/>
        <path style="fill:none;stroke-linecap:round;stroke-miterlimit:10;" d="M11.734,3.759
		l1.018-1.707c0.041-0.058,0.058-0.129,0.046-0.199c-0.012-0.069-0.051-0.131-0.109-0.171c-0.529-0.367-1.138-0.134-1.584,0.306
		c-0.253-0.249-0.736-0.45-1.1-0.45s-0.813,0.201-1.066,0.45C8.492,1.55,7.847,1.315,7.317,1.678
		C7.207,1.754,7.182,1.92,7.246,2.039l0.957,1.758"/>
        <path style="fill:none;stroke-linecap:round;stroke-miterlimit:10;" d="M8.188,5.032
		C7.755,5.463,6.448,6.773,6.171,7.12C5.412,8.07,5.011,9.217,5.011,10.437c0,0.981,0.378,2.092,0.844,2.882"/>
        <path style="fill:none;stroke-linecap:round;stroke-miterlimit:10;" d="M14.343,13.126
		c0.388-0.698,0.726-1.908,0.726-2.689c0-1.221-0.401-2.369-1.162-3.32c-0.284-0.355-1.642-1.657-2.094-2.088"/>
        <path style="fill:none;stroke-linecap:round;stroke-miterlimit:10;" d="M10.121,10.937"/>

        <line style="stroke-linecap:round;stroke-miterlimit:10;" x1="10.121" y1="7.407" x2="10.121" y2="8.034"/>

        <line style="stroke-linecap:round;stroke-miterlimit:10;" x1="10.121" y1="10.954" x2="10.121" y2="11.582"/>
        <path style="fill:none;stroke-linecap:round;stroke-miterlimit:10;" d="M9.319,10.235
		c0,0,0.065,0.719,0.801,0.719c0.321,0,0.513-0.116,0.628-0.255c0.231-0.278,0.205-0.706-0.063-0.95
		c-0.119-0.108-0.297-0.213-0.566-0.255S9.658,9.348,9.539,9.239C9.272,8.996,9.245,8.567,9.477,8.29
		C9.592,8.15,9.8,8.034,10.121,8.034c0.736,0,0.786,0.719,0.786,0.719"/>

    </symbol>
    <symbol id="phone" viewbox="0 0 20 20">
        <path d="M4.835,1.505
		c-0.105,0-0.217,0.016-0.337,0.052C3.777,1.771,1.521,3.981,1.506,4.745C1.496,5.228,1.66,5.762,1.792,6.222
		c0.582,2.027,2.003,3.821,3.372,5.382c2.585,2.948,5.782,6.038,9.733,6.862c0.077,0.017,0.156,0.028,0.235,0.028
		c0.04,0,0.08-0.003,0.12-0.011c1.078-0.213,2.993-2.217,3.199-3.005c0.231-0.884-0.526-1.325-1.184-1.754
		c-0.846-0.552-1.719-1.337-2.641-1.742c-0.188-0.083-0.368-0.118-0.541-0.118c-0.687,0-1.279,0.546-1.926,0.824
		c-0.178,0.076-0.309,0.111-0.417,0.111c-0.282,0-0.42-0.237-0.866-0.614c-0.815-0.689-1.588-1.43-2.313-2.214
		c-0.443-0.48-1.459-1.303-1.361-1.937C7.374,6.939,8.6,6.449,7.92,5.206C7.415,4.281,6.726,3.404,6.142,2.525
		C5.802,2.014,5.423,1.505,4.835,1.505L4.835,1.505z"/>
    </symbol>

    <symbol id="pin" viewbox="0 0 20 20">
        <path style="fill-rule:evenodd;clip-rule:evenodd;stroke-linejoin:round;stroke-miterlimit:10;" d="M15.48,6.517
	c-0.479-3.263-3.348-5.473-6.38-4.937C6.467,2.046,4.523,4.459,4.472,7.35c-0.024,1.356,0.583,2.8,1.103,3.863
	S9.24,17.45,10.006,18.5c0.048-0.057,0.078-0.089,0.104-0.123c1.689-2.296,3.99-6.349,4.392-7.164
	C15.012,10.182,15.72,8.145,15.48,6.517z M10,9.582c-1.093,0-1.977-0.875-1.977-1.959c0-1.09,0.889-1.977,1.98-1.973
	c1.085,0.003,1.974,0.89,1.973,1.97C11.977,8.702,11.09,9.582,10,9.582z"/>
    </symbol>
    <symbol id="pinterest" viewbox="0 0 20 20">
        <path d="M11.196,13.83c-1.125-0.081-1.597-0.594-2.479-1.086c-0.485,2.34-1.077,4.584-2.832,5.756
	c-0.542-3.537,0.795-6.194,1.416-9.015c-1.059-1.64,0.127-4.94,2.36-4.127c2.747,1-2.379,6.098,1.062,6.733
	c3.593,0.665,5.06-5.737,2.833-7.819c-3.22-3.006-9.372-0.068-8.615,4.235c0.184,1.053,1.365,1.372,0.472,2.824
	c-2.061-0.42-2.675-1.916-2.596-3.91c0.127-3.264,3.187-5.549,6.255-5.865c3.88-0.399,7.521,1.311,8.024,4.67
	C17.729,10.466,15.044,14.104,11.196,13.83L11.196,13.83z"/>
    </symbol>

    <symbol id="plus" viewbox="0 0 20 20">
        <line style="fill:none;stroke-linecap:round;stroke-miterlimit:10;" x1="10" y1="18.5" x2="10" y2="1.5"/>

        <line style="fill:none;stroke-linecap:round;stroke-miterlimit:10;" x1="18.5" y1="10" x2="1.5" y2="10"/>
    </symbol>
    <symbol id="plus-round" viewbox="0 0 20 20">
        <path d="M9.975,2.25c2.067,0,4.016,0.805,5.483,2.266c3.034,3.019,3.054,7.936,0.045,10.96c-1.46,1.467-3.405,2.274-5.478,2.274
				c-2.068,0-4.016-0.805-5.483-2.266c-3.034-3.02-3.054-7.937-0.044-10.96C5.957,3.058,7.902,2.25,9.975,2.25"/>

        <path style="stroke-linecap:round;stroke-miterlimit:10;" d="M9.982,14.459V5.541
		 M14.44,9.946H5.523"/>

    </symbol>
    <symbol id="quotes" viewbox="0 0 20 20">
        <path style="stroke-linecap:round;stroke-linejoin:round;stroke-miterlimit:10;" d="
	M7.843,3.565c-0.337,0.233-0.67,0.473-1.011,0.7c-1.333,0.888-2.361,1.993-2.58,3.676C4.226,8.14,4.207,8.34,4.206,8.54
	c-0.004,1.023,0.47,1.535,1.491,1.618c0.528,0.042,1.07,0.024,1.581,0.143c1.988,0.46,2.876,2.687,1.83,4.518
	c-0.702,1.227-2.385,1.874-4.014,1.543C3.355,16.008,2,14.521,1.627,12.521c-0.447-2.397,0.308-4.479,1.826-6.27
	C4.209,5.36,7.16,3.38,7.843,3.565z M11.905,7.002c-1.138,1.724-1.659,3.594-1.223,5.664c0.519,2.467,2.408,3.944,4.753,3.746
	c1.593-0.135,2.771-1.103,3.005-2.571c0.291-1.825-0.478-3.343-2.496-3.596c-0.375-0.047-0.756-0.053-1.135-0.077
	c-1.181-0.075-1.688-0.673-1.601-1.858c0.137-1.835,1.17-3.066,2.614-4.027c0.337-0.225,0.665-0.464,0.997-0.696
	C15.823,3.354,12.722,5.766,11.905,7.002z"/>
    </symbol>
    <symbol id="refresh" viewbox="0 0 20 20">
        <path style="stroke-linecap:round;stroke-linejoin:round;stroke-miterlimit:10;" d="
	M3.38,9.503c-0.002,0-0.004,0-0.006-0.001C3.225,9.465,3.131,9.318,3.16,9.169C3.182,9.05,3.632,6.23,5.901,4.746
	c1.274-0.833,2.852-1.192,4.643-0.842l0.493-2.18c0.024-0.107,0.107-0.191,0.215-0.216c0.108-0.025,0.22,0.012,0.29,0.098l3.862,4.7
	c0.057,0.069,0.078,0.16,0.059,0.247s-0.078,0.16-0.158,0.197L9.793,9.328C9.694,9.375,9.576,9.36,9.49,9.291
	C9.404,9.222,9.365,9.11,9.389,9.002l0.518-2.286C4.792,5.69,3.766,9.158,3.72,9.307C3.675,9.451,3.526,9.537,3.38,9.503z
	 M16.62,10.497c0.002,0,0.004,0,0.007,0.001c0.147,0.037,0.242,0.184,0.213,0.333c-0.022,0.119-0.472,2.938-2.741,4.423
	c-1.274,0.833-2.853,1.191-4.643,0.843l-0.494,2.179c-0.024,0.107-0.107,0.191-0.215,0.217s-0.219-0.013-0.29-0.098l-3.863-4.7
	c-0.057-0.069-0.078-0.16-0.058-0.247c0.02-0.086,0.078-0.159,0.159-0.197l5.511-2.578c0.1-0.047,0.217-0.033,0.304,0.037
	c0.086,0.069,0.125,0.181,0.101,0.289l-0.518,2.286c5.116,1.026,6.141-2.441,6.187-2.59C16.325,10.549,16.474,10.463,16.62,10.497z"
                />
    </symbol>

    <symbol id="swap" viewbox="0 0 20 20">
        <path d="M0,7.92626204 L6.5563128,11.8478353 M0.267805962,7.92379428 L17.3521819,7.92379428" id="Stroke-1"></path>
        <path d="M17.0004,4.45538779 L10.5770038,0 M16.7380233,4.45768934 L0,4.45768934" id="Stroke-3"></path>
    </symbol>
    <symbol id="settings" viewbox="0 0 20 20">
        <path style="stroke-miterlimit:10;" d="M18.029,9.055l-0.019-0.003l-1.983-0.44
	L15.883,8.15c-0.097-0.308-0.225-0.617-0.392-0.944L15.28,6.793l1.049-1.747c0.138-0.221,0.223-0.533,0.125-0.63L15.63,3.592
	c-0.061-0.061-0.16-0.073-0.232-0.073c-0.137,0-0.286,0.045-0.39,0.117l-0.026,0.018L13.261,4.75l-0.428-0.222
	c-0.308-0.16-0.624-0.292-0.939-0.395l-0.455-0.147l-0.445-2.004L10.992,1.97c-0.038-0.206-0.237-0.47-0.408-0.47H9.417
	c-0.133,0-0.296,0.274-0.353,0.519L8.573,3.983L8.129,4.125c-0.341,0.109-0.678,0.25-1.001,0.421L6.699,4.772L4.943,3.654
	L4.931,3.646l-0.015-0.01c-0.104-0.072-0.254-0.118-0.39-0.118c-0.073,0-0.172,0.013-0.232,0.073L3.469,4.417
	C3.375,4.511,3.453,4.819,3.586,5.032l1.097,1.827l-0.204,0.41C4.323,7.584,4.205,7.873,4.117,8.151L3.972,8.612L1.986,9.053
	L1.97,9.056C1.763,9.093,1.5,9.292,1.5,9.463v1.167c0,0.133,0.273,0.296,0.518,0.352l1.981,0.495l0.144,0.439
	c0.089,0.271,0.199,0.538,0.337,0.817l0.204,0.409l-1.088,1.814c-0.138,0.22-0.223,0.532-0.125,0.629l0.825,0.825
	c0.06,0.061,0.159,0.073,0.232,0.073c0.136,0,0.285-0.045,0.39-0.117l0.016-0.011l1.77-1.129l0.43,0.227
	c0.328,0.174,0.666,0.316,1.005,0.424l0.446,0.141l0.487,1.946C9.128,18.219,9.288,18.5,9.426,18.5h1.167
	c0.171,0,0.371-0.263,0.408-0.471l0.003-0.019l0.443-2l0.456-0.147c0.309-0.1,0.621-0.23,0.927-0.39l0.429-0.222l1.722,1.099
	l0.027,0.019c0.104,0.071,0.253,0.116,0.39,0.116c0.072,0,0.172-0.013,0.231-0.073l0.826-0.825c0.094-0.095,0.015-0.403-0.117-0.615
	l-1.059-1.762l0.21-0.413c0.149-0.293,0.273-0.589,0.369-0.881l0.144-0.438l1.965-0.491c0.253-0.059,0.533-0.219,0.533-0.356V9.463
	C18.5,9.292,18.237,9.093,18.029,9.055z M10,12.912c-1.611,0-2.921-1.307-2.921-2.912c0-1.606,1.311-2.913,2.921-2.913
	c1.61,0,2.92,1.307,2.92,2.913C12.921,11.605,11.61,12.912,10,12.912z"/>
    </symbol>

    <symbol id="wifi" viewbox="0 0 20 20">


        <path style="fill-rule:evenodd;clip-rule:evenodd;fill:none;stroke-linecap:round;stroke-linejoin:round;stroke-miterlimit:10;" d="
		M1.5,6.809c5.189-3.436,11.851-3.609,17,0.06"/>

        <path style="fill-rule:evenodd;clip-rule:evenodd;fill:none;stroke-linecap:round;stroke-linejoin:round;stroke-miterlimit:10;" d="
		M3.917,9.542c1.888-1.162,3.805-1.93,6.059-1.92c2.189,0.009,4.183,0.647,5.984,1.893"/>

        <path style="fill-rule:evenodd;clip-rule:evenodd;fill:none;stroke-linecap:round;stroke-linejoin:round;stroke-miterlimit:10;" d="
		M6.336,12.271c0.188-0.13,0.38-0.259,0.584-0.36c2.261-1.132,4.465-1.03,6.605,0.324c0.037,0.024,0.074,0.051,0.105,0.082"/>

        <circle style="fill-rule:evenodd;clip-rule:evenodd;stroke-miterlimit:10;stroke-opacity:0;" cx="9.933" cy="14.991" r="0.834"/>
    </symbol>

    <symbol id="star" viewbox="0 0 20 20">
        <path style="fill-rule:evenodd;clip-rule:evenodd;stroke-miterlimit:10;" d="M1.605,7.525h6.388
	c0.045,0,0.085-0.029,0.1-0.072l1.809-5.462c0.032-0.096,0.167-0.096,0.199,0l1.809,5.462c0.014,0.042,0.054,0.072,0.1,0.072h6.387
	c0.1,0,0.144,0.125,0.066,0.187l-4.544,3.659c-0.032,0.026-0.046,0.07-0.035,0.11l1.835,6.466c0.026,0.094-0.078,0.17-0.159,0.115
	l-5.499-3.691c-0.035-0.023-0.082-0.023-0.117,0l-5.5,3.691c-0.081,0.055-0.186-0.021-0.159-0.115l1.835-6.466
	c0.011-0.04-0.002-0.084-0.035-0.11L1.539,7.712C1.462,7.65,1.506,7.525,1.605,7.525z"/>
    </symbol>
    <symbol id="star-fill" viewbox="0 0 20 20">
            <path style="fill-rule:evenodd;clip-rule:evenodd;stroke:none" d="M0,0v20h20V0H0z M18.376,7.735l-4.498,3.623
   c-0.032,0.026-0.046,0.069-0.035,0.109l1.816,6.401c0.026,0.093-0.077,0.168-0.158,0.115l-5.444-3.654
   c-0.035-0.023-0.081-0.023-0.116,0l-5.444,3.654c-0.08,0.054-0.184-0.022-0.158-0.115l1.816-6.401
   c0.011-0.04-0.002-0.083-0.035-0.109L1.624,7.735C1.547,7.673,1.591,7.55,1.689,7.55h6.324c0.045,0,0.084-0.029,0.098-0.071
   l1.79-5.408c0.031-0.095,0.166-0.095,0.197,0l1.79,5.408c0.014,0.043,0.054,0.071,0.099,0.071h6.324
   C18.409,7.55,18.452,7.673,18.376,7.735z"/>
            <path style="fill:none;fill-rule:evenodd;clip-rule:evenodd;stroke-miterlimit:10;" d="M18.376,7.735l-4.498,3.623
   c-0.032,0.026-0.046,0.069-0.035,0.109l1.816,6.401c0.026,0.093-0.077,0.168-0.158,0.115l-5.444-3.654
   c-0.035-0.023-0.081-0.023-0.116,0l-5.444,3.654c-0.08,0.054-0.184-0.022-0.158-0.115l1.816-6.401
   c0.011-0.04-0.002-0.083-0.035-0.109L1.624,7.735C1.547,7.673,1.591,7.55,1.689,7.55h6.324c0.045,0,0.084-0.029,0.098-0.071
   l1.79-5.408c0.031-0.095,0.166-0.095,0.197,0l1.79,5.408c0.014,0.043,0.054,0.071,0.099,0.071h6.324
   C18.409,7.55,18.452,7.673,18.376,7.735z"/>
    </symbol>

    <symbol id="truck" view-box="0 0 20 20">
        <path style="fill:none;stroke-miterlimit:10;" d="M12.949,14.146
		c0.013,0.922,0.758,1.671,1.686,1.68c0.927,0.009,1.686-0.726,1.716-1.647"/>
        <path style="stroke-miterlimit:10;" d="M13.728,9.85l0.014-1.465
		c0.004-0.35,0.29-0.609,0.64-0.606h2.28l-0.387-0.543c0,0-0.229-0.339-0.419-0.494c-0.339-0.276-0.801-0.312-0.801-0.312h-2.887
		c-0.35-0.003-0.628,0.278-0.631,0.627v6.441c-0.004,0.35,0.269,0.636,0.618,0.64h0.794c0-0.014-0.001-0.02-0.001-0.032
		c0.009-0.94,0.778-1.695,1.719-1.687c0.939,0.009,1.695,0.778,1.687,1.719c0,0.013-0.002,0.025-0.003,0.039h0.979
		c0.351,0.004,0.637-0.269,0.64-0.618l0.029-3.07h-3.644C14.005,10.486,13.724,10.2,13.728,9.85z"/>
        <path style="fill:none;stroke-miterlimit:10;" d="M17.998,10.49L18,10.3
		c0,0,0.007-0.281-0.057-0.519C17.88,9.543,17.608,9.11,17.608,9.11l-0.947-1.331"/>
        <path style="fill:none;stroke-miterlimit:10;" d="M16.351,14.178
		c0.001-0.014,0.003-0.026,0.003-0.039c0.009-0.94-0.747-1.71-1.687-1.719c-0.94-0.009-1.71,0.746-1.719,1.687
		c0,0.013,0.001,0.026,0.001,0.039"/>
        <path style="stroke-miterlimit:10;" d="M11.01,4.175H2.721
		C2.371,4.172,2.003,4.375,2,4.724v8.605c-0.003,0.35,0.278,0.672,0.627,0.675H4.24c0.03-0.922,0.79-1.676,1.716-1.667
		s1.672,0.745,1.685,1.667h3.275c0.35,0.004,0.618-0.234,0.622-0.584V4.814C11.541,4.465,11.359,4.179,11.01,4.175z"/>
        <path style="fill:none;stroke-miterlimit:10;" d="M4.24,13.984c0,0.013-0.002,0.026-0.002,0.039
		c-0.009,0.94,0.746,1.71,1.687,1.719s1.709-0.746,1.719-1.687c0-0.013-0.001-0.026-0.002-0.039"/>
    </symbol>
    <symbol id="twitter">
      <path d="M6.5,17.7c7.2,0,11.1-5.9,11.1-11.1c0-0.2,0-0.3,0-0.5c0.8-0.6,1.4-1.2,1.9-2c-0.7,0.3-1.5,0.5-2.2,0.6
c0.8-0.5,1.4-1.3,1.7-2.2c-0.8,0.5-1.6,0.8-2.5,0.9C15,1.9,12.6,1.9,11,3.3c-1,1-1.4,2.4-1.1,3.7C6.7,6.9,3.8,5.4,1.8,3
C0.8,4.8,1.3,7.1,3,8.2C2.4,8.2,1.8,8,1.3,7.7c0,0,0,0,0,0c0,1.9,1.3,3.5,3.1,3.8c-0.6,0.2-1.2,0.2-1.8,0.1c0.5,1.6,2,2.7,3.6,2.7
C4.9,15.4,3.2,16,1.4,16c-0.3,0-0.6,0-0.9-0.1C2.3,17.1,4.4,17.7,6.5,17.7"/>
    </symbol>
    <symbol id="bag" viewbox="0 0 20 20">

        <path d="M16.375,4.983C16.41,5.27,18.438,18.672,18.5,19.178
		c-5.667,0-11.333,0-17,0c0.051-0.4,2.216-14.149,2.229-14.189L16.375,4.983z"/>

        <path style="fill-rule:evenodd;clip-rule:evenodd;fill:none;" d="M6.556,7.25c0-0.217-0.001-2.033,0-2.238
	C6.559,4.448,6.625,3.9,6.8,3.367c0.56-1.711,2.211-2.807,3.773-2.491c1.485,0.301,2.545,1.453,2.87,3.146
	c0.061,0.314,0.062,0.646,0.079,0.97c0.012,0.207,0.003,2.026,0.003,2.251"/>
        <circle style="fill-rule:evenodd;clip-rule:evenodd;stroke:transparent;" cx="6.555" cy="7.322" r="0.74" fill="currentColor"/>
        <circle style="fill-rule:evenodd;clip-rule:evenodd;stroke:transparent;" cx="13.528" cy="7.322" r="0.74" fill="currentColor"/>
    </symbol>

    <symbol id="unlocked" viewbox="0 0 20 20">

        <path style="fill-rule:evenodd;clip-rule:evenodd;fill:none;stroke-linecap:round;stroke-linejoin:round;stroke-miterlimit:10;" d="
		M5.82,8.565c0,0-0.021-1.44-0.011-2.187c0.006-0.421,0.013-0.847,0.074-1.262c0.241-1.623,1.138-2.684,2.553-3.33
		C8.693,1.67,9.269,1.504,9.92,1.5c0.682-0.004,1.295,0.226,1.412,0.275c1.432,0.608,2.322,1.691,2.584,3.313
		c0.05,0.311,0.093,0.76,0.106,0.98"/>
        <path style="fill-rule:evenodd;clip-rule:evenodd;stroke-miterlimit:10;" d="
		M10.009,18.5c3.255-0.079,5.87-2.539,5.862-5.854c-0.008-3.405-2.803-5.807-5.903-5.792c-3.069,0.015-5.841,2.413-5.839,5.811
		C4.13,15.971,6.745,18.43,10.009,18.5z"/>

        <path style="fill-rule:evenodd;clip-rule:evenodd;stroke-linecap:round;stroke-linejoin:round;stroke-miterlimit:10;" d="
		M9.976,12.191v2.479 M9.976,11.688c-0.275,0-0.5,0.227-0.5,0.504c0,0.273,0.225,0.5,0.5,0.5c0.276,0,0.5-0.227,0.5-0.5
		C10.476,11.915,10.252,11.688,9.976,11.688z"/>

    </symbol>

    <symbol id="lock" viewbox="0 0 20 20">
        <path d="M14.89,7.969L5.173,7.912C4.001,7.906,3.045,8.86,3.039,10.044l-0.04,6.854c-0.007,1.184,0.938,2.149,2.11,2.034
	l9.717,0.058c1.172,0.128,2.127-0.826,2.134-2.01L17,10.125C17.006,8.941,16.062,7.977,14.89,7.969z"/>
        <path d="M14.912,7.353c-0.691-0.003-1.373-0.007-2.079-0.012c0.001-0.206,0.019-0.408,0.001-0.607
	c-0.047-0.515-0.063-1.038-0.173-1.54c-0.169-0.771-0.558-1.415-1.286-1.791c-0.84-0.435-2.34-0.435-3.148,0.345
	C7.728,4.23,7.467,4.838,7.356,5.508c-0.07,0.421-0.08,0.853-0.109,1.28C7.235,6.954,7.244,7.121,7.243,7.303
	C6.546,7.299,5.86,7.295,5.152,7.291c0.001-0.228,0.001-0.452,0.004-0.677c0.011-0.863,0.114-1.711,0.425-2.522
	C6.237,2.385,7.43,1.338,9.245,1.064c0.954-0.144,1.884-0.053,2.778,0.319c0.893,0.371,1.578,0.988,2.073,1.821
	c0.552,0.927,0.774,1.949,0.819,3.017C14.932,6.595,14.914,6.969,14.912,7.353z"/>
    </symbol>

    <symbol id="user" viewbox="0 0 20 20">
        <path style="stroke-miterlimit:10;" d="M12.777,10.663c-0.816,0.573-1.809,0.911-2.878,0.911
	c-1.072,0-2.067-0.339-2.884-0.914 M12.777,10.663c1.299-0.912,2.15-2.42,2.15-4.126c0-2.777-2.258-5.037-5.028-5.037
	c-2.772,0-5.03,2.26-5.03,5.037c0,1.704,0.85,3.21,2.146,4.123 M13.275,10.854c-0.177-0.071-0.342-0.134-0.498-0.192
	c-0.816,0.573-1.809,0.911-2.878,0.911c-1.072,0-2.067-0.339-2.884-0.914c-0.146,0.059-0.294,0.123-0.449,0.196
	c-1.248,0.588-2.551,1.92-3.39,4.038c-0.233,0.589-0.03,1.25,0.491,1.611C5.48,17.766,7.644,18.5,9.966,18.5
	c2.304,0,4.554-0.792,6.385-2.054c0.493-0.339,0.701-0.968,0.479-1.524C16.129,13.157,14.996,11.541,13.275,10.854z"/>
    </symbol>
    <symbol id="user-round" viewBox="0 0 20 20">

        <path style="fill:none;stroke-linecap:round;stroke-linejoin:round;stroke-miterlimit:10;" d="
				M12.191,12.119c-0.62,0.43-1.37,0.689-2.18,0.689s-1.57-0.26-2.19-0.689"/>
        <path style="fill:none;stroke-linecap:round;stroke-linejoin:round;stroke-miterlimit:10;" d="
				M4.501,16.479c1.48,1.261,3.4,2.021,5.5,2.021c2.16,0,4.129-0.811,5.629-2.14"/>

        <path style="stroke-miterlimit:10;" d="M12.19,12.118c0.984-0.69,1.63-1.833,1.63-3.126
		c0-2.105-1.711-3.817-3.811-3.817c-2.102,0-3.812,1.712-3.812,3.817c0,1.291,0.644,2.433,1.625,3.125
		c-0.11,0.044-0.223,0.093-0.34,0.148c-1.085,0.511-2.224,1.764-2.824,3.803c-0.052,0.143-0.104,0.279-0.158,0.412
		C2.662,14.919,1.492,12.595,1.492,10c0-4.687,3.817-8.499,8.507-8.499c4.691,0,8.508,3.813,8.508,8.499
		c0,2.53-1.113,4.804-2.874,6.361c-0.042-0.103-0.085-0.209-0.125-0.318c-0.496-1.592-1.412-3.17-2.94-3.778
		C12.434,12.21,12.31,12.163,12.19,12.118z"/>
    </symbol>
    <symbol id="x" viewbox="0 0 20 20">
        <line style="fill:none;stroke-linecap:round;stroke-miterlimit:10;" x1="18.5" y1="1.5" x2="1.5" y2="18.5"/>

        <line style="fill:none;stroke-linecap:round;stroke-miterlimit:10;" x1="18.5" y1="18.5" x2="1.5" y2="1.5"/>
    </symbol>
    <symbol id="x-round" viewbox="0 0 20 20">

        <path d="M10.001,19c-4.746,0-8.615-4.046-8.626-8.806C1.364,5.424,5.224,1.446,9.979,1.435c4.765,0,8.634,4.002,8.646,8.762
				C18.637,14.967,14.777,19,10.021,19H10.001z"/>

        <line style="stroke-linecap:round;stroke-miterlimit:10;" x1="13.324" y1="13.284" x2="6.638" y2="6.598"/>

        <line style="stroke-linecap:round;stroke-miterlimit:10;" x1="6.638" y1="13.284" x2="13.324" y2="6.598"/>

    </symbol>
    <symbol id="tooltip-help" viewbox="0 0 20 20">
        <path d="M9.993,18c-4.369-0.001-7.89-3.414-8.015-7.77c-0.126-4.41,3.37-8.1,7.792-8.227L10.006,2c4.37,0,7.891,3.413,8.016,7.77
			c0.062,2.135-0.715,4.167-2.187,5.721c-1.473,1.554-3.463,2.443-5.605,2.505L9.993,18z"/>
        <path style="stroke-linecap:round;" d="M9.676,12.125c-0.021-1.167,0.443-1.605,1.293-2.354
			c0.688-0.605,1.177-1.237,1.119-2.203C11.92,4.812,7.943,4.742,7.956,7.552"/>
        <rect x="9.609" y="13.936" transform="matrix(0.9996 -0.0271 0.0271 0.9996 -0.3777 0.2687)" style="stroke-linecap:round;stroke-linejoin:round;" width="0.253" height="0.298"/>
    </symbol>

    <symbol id="menu-search" viewbox="0 0 20 20">

        <line style="stroke-linecap:round;stroke-linejoin:round;stroke-miterlimit:10;" x1="1.5" y1="7.323" x2="5.797" y2="7.323"/>

        <line style="stroke-linecap:round;stroke-linejoin:round;stroke-miterlimit:10;" x1="1.5" y1="11.267" x2="6.056" y2="11.267"/>

        <line style="stroke-linecap:round;stroke-linejoin:round;stroke-miterlimit:10;" x1="1.5" y1="15.21" x2="10.463" y2="15.21"/>

        <line style="stroke-linecap:round;stroke-linejoin:round;stroke-miterlimit:10;" x1="18.5" y1="15.696" x2="14.982" y2="12.335"/>

        <path style="fill-rule:evenodd;clip-rule:evenodd;stroke-linecap:round;stroke-linejoin:round;stroke-miterlimit:10;" d="
	M11.519,13.46c-0.132-0.018-0.266-0.031-0.396-0.054c-1.409-0.238-2.488-0.97-3.235-2.187c-0.349-0.568-0.556-1.191-0.617-1.854
	C7.144,8,7.532,6.797,8.458,5.783c0.735-0.806,1.654-1.286,2.733-1.435c2.121-0.294,4.127,0.901,4.9,2.88
	c0.507,1.293,0.397,2.807-0.336,3.996c-0.747,1.214-1.825,1.945-3.232,2.183C12.19,13.47,11.856,13.487,11.519,13.46
	C11.387,13.442,11.721,13.46,11.519,13.46z"/>
    </symbol>

    <symbol id="warning" viewbox="0 0 20 20">
        <path d="M10,1.5c-0.007,0-0.014,0-0.021,0
			c-4.708,0.011-8.516,3.826-8.505,8.521C1.486,14.707,5.301,18.5,9.999,18.5c0.007,0,0.014,0,0.021,0
			c4.708-0.012,8.516-3.826,8.505-8.521C18.514,5.292,14.698,1.5,10,1.5L10,1.5z"/>

        <line style="stroke-linecap:round;" x1="9.905" y1="5.475" x2="9.905" y2="12"/>


        <rect x="9.779" y="13.928" style="stroke-linecap:round;stroke-linejoin:round;" width="0.252" height="0.298"/>

    </symbol>

    <symbol id="ruler" viewbox="0 0 20 20">
        <path style="stroke-linecap:round;stroke-linejoin:round;stroke-miterlimit:10;" d="
    M8.176,5.956v4.114 M15.12,10.07V5.956V10.07z M15.12,5.956v4.114 M11.648,5.956v2.782 M5.034,5.956v2.782 M18,13.461v-6.92
    c0-0.322-0.263-0.584-0.585-0.584H2.583C2.263,5.957,2,6.218,2,6.541v6.92c0,0.32,0.263,0.583,0.583,0.583h14.832
    C17.737,14.044,18,13.781,18,13.461z"/>
    </symbol>

    <symbol id="diamond-round" viewbox="0 0 20 20">
        <circle style="fill:currentFill; stroke-linecap:round; stroke-linejoin:round; stroke-miterlimit:10;" cx="10" cy="10" r="9"/>
        <path fill="currentColor" d=" M15.828,9.225c0-0.009-0.008-0.063-0.016-0.082
	l-1.625-2.818c-0.033-0.077-0.109-0.128-0.194-0.128H6.007c-0.085,0-0.162,0.051-0.194,0.128L4.188,9.142
	C4.179,9.161,4.172,9.216,4.172,9.225c0,0.005,0.021,0.102,0.052,0.139l5.618,6.345c0.005,0.005,0.013,0.003,0.017,0.008
	c0.015,0.014,0.028,0.026,0.046,0.036c0.004,0.002,0.004,0.008,0.01,0.01c0.027,0.011,0.057,0.017,0.084,0.017
	c0.028,0,0.057-0.006,0.085-0.017c0.005-0.002,0.006-0.008,0.01-0.011c0.018-0.009,0.031-0.021,0.045-0.035
	c0.006-0.005,0.014-0.003,0.019-0.008l5.618-6.345C15.83,9.3,15.828,9.229,15.828,9.225z"/>
        <line style="fill:none;" x1="4.18" y1="9.202" x2="15.822" y2="9.202"/>
        <polyline style="fill:none;" points="11.552,6.206 12.839,9.181
	12.839,9.219 10.024,15.804 "/>
        <polyline style="fill:none;" points="9.999,15.804 7.184,9.219 7.184,9.181
	8.471,6.206 "/>
    </symbol>

    <symbol id="bra-fill" viewbox="0 0 20 20">
        <path style="fill-rule:evenodd;clip-rule:evenodd;stroke:none" d="M0,0v20h20V0H0z M17.484,15.556c-0.602,0.743-1.359,1.155-2.414,1.224c-0.126,0.008-0.266,0.014-0.417,0.014
   c-1.532,0-2.915-0.667-4.112-1.984l-0.026-0.032c0,0-0.127-0.159-0.457-0.159c-0.33,0-0.456,0.159-0.461,0.166l-0.021,0.025
   c-1.197,1.316-2.58,1.984-4.112,1.984c-0.151,0-0.29-0.006-0.416-0.014c-1.055-0.069-1.896-0.481-2.498-1.224
   c-1.301-1.605-1.063-3.193-0.979-4.13c0.054-0.372,0.181-0.923,0.329-1.559c0.228-0.984,0.512-2.209,0.604-3.165
   c0.038-0.396,0.049-0.957,0.058-1.453c0.02-1.03,0.035-1.643,0.138-1.786c0.137-0.189,0.153-0.217,0.354-0.217
   c0.274,0,0.391,0.072,0.479,0.265c0.078,0.171,0.171,2.511,0.276,5.754c1.837,0.22,3.917,1.528,5.232,3.35
   c0.091,0.126,0.169,0.265,0.245,0.4c0.111,0.196,0.215,0.38,0.342,0.506c0.084,0.083,0.199,0.129,0.352,0.141h0.154
   c0.152-0.012,0.267-0.058,0.352-0.141c0.127-0.125,0.232-0.31,0.342-0.506c0.076-0.135,0.155-0.274,0.245-0.4
   c1.315-1.822,3.396-3.13,5.232-3.35c0.105-3.243,0.198-5.583,0.276-5.754c0.088-0.194,0.206-0.305,0.48-0.305
   c0.201,0,0.217,0.067,0.353,0.257c0.103,0.143,0.118,0.756,0.138,1.786c0.009,0.495,0.02,1.057,0.058,1.453
   c0.093,0.957,0.293,2.181,0.521,3.166c0.148,0.637,0.275,1.187,0.329,1.559C18.467,11.451,18.785,13.951,17.484,15.556z"/>
        <path style="fill:none;fill-rule:evenodd;clip-rule:evenodd;stroke-miterlimit:10;" d="M17.484,15.556c-0.602,0.743-1.359,1.155-2.414,1.224c-0.126,0.008-0.266,0.014-0.417,0.014
   c-1.532,0-2.915-0.667-4.112-1.984l-0.026-0.032c0,0-0.127-0.159-0.457-0.159c-0.33,0-0.456,0.159-0.461,0.166l-0.021,0.025
   c-1.197,1.316-2.58,1.984-4.112,1.984c-0.151,0-0.29-0.006-0.416-0.014c-1.055-0.069-1.896-0.481-2.498-1.224
   c-1.301-1.605-1.063-3.193-0.979-4.13c0.054-0.372,0.181-0.923,0.329-1.559c0.228-0.984,0.512-2.209,0.604-3.165
   c0.038-0.396,0.049-0.957,0.058-1.453c0.02-1.03,0.035-1.643,0.138-1.786c0.137-0.189,0.153-0.217,0.354-0.217
   c0.274,0,0.391,0.072,0.479,0.265c0.078,0.171,0.171,2.511,0.276,5.754c1.837,0.22,3.917,1.528,5.232,3.35
   c0.091,0.126,0.169,0.265,0.245,0.4c0.111,0.196,0.215,0.38,0.342,0.506c0.084,0.083,0.199,0.129,0.352,0.141h0.154
   c0.152-0.012,0.267-0.058,0.352-0.141c0.127-0.125,0.232-0.31,0.342-0.506c0.076-0.135,0.155-0.274,0.245-0.4
   c1.315-1.822,3.396-3.13,5.232-3.35c0.105-3.243,0.198-5.583,0.276-5.754c0.088-0.194,0.206-0.305,0.48-0.305
   c0.201,0,0.217,0.067,0.353,0.257c0.103,0.143,0.118,0.756,0.138,1.786c0.009,0.495,0.02,1.057,0.058,1.453
   c0.093,0.957,0.293,2.181,0.521,3.166c0.148,0.637,0.275,1.187,0.329,1.559C18.467,11.451,18.785,13.951,17.484,15.556z"/>
    </symbol>

    <symbol viewbox="0 0 20 20" id="calendar-round">
        <path  d="M10,1.5c4.687,0,8.5,3.813,8.5,8.5c0,4.687-3.813,8.5-8.5,8.5c-4.687,0-8.5-3.813-8.5-8.5C1.5,5.313,5.313,1.5,10,1.5"/>
        <path fill="currentColor" style="stroke-miterlimit:10;" d="M13.391,13.847H6.609
  C6.272,13.847,6,13.574,6,13.238V7.321c0-0.336,0.273-0.609,0.609-0.609h6.782C13.728,6.712,14,6.985,14,7.321v5.917
  C14,13.574,13.728,13.847,13.391,13.847z"/>
        <path style="stroke-miterlimit:10;" d="M7.813,7.671c0.091,0,0.165-0.136,0.165-0.304
  v-1.31c0-0.167-0.074-0.304-0.165-0.304c-0.091,0-0.166,0.137-0.166,0.304v1.31C7.647,7.535,7.722,7.671,7.813,7.671L7.813,7.671
   M11.978,7.671c0.092,0,0.166-0.136,0.166-0.304v-1.31c0-0.167-0.074-0.304-0.166-0.304c-0.091,0-0.165,0.137-0.165,0.304v1.31
  C11.813,7.535,11.887,7.671,11.978,7.671L11.978,7.671"/>
        <path class="date" xmlns="http://www.w3.org/2000/svg" transform="translate(0, .3)"
              stroke-width=".25" d="M7.771,10.362c0.041-0.111,0.106-0.195,0.198-0.25c0.09-0.055,0.223-0.083,0.396-0.083c0.179,0,0.319,0.061,0.418,0.182  c0.1,0.122,0.15,0.283,0.15,0.485c0,0.229-0.05,0.405-0.15,0.526c-0.099,0.121-0.249,0.182-0.449,0.182  c-0.172,0-0.31-0.048-0.413-0.144c-0.104-0.096-0.155-0.235-0.155-0.416H7.567l-0.003,0.011c-0.007,0.243,0.065,0.427,0.213,0.552  c0.148,0.124,0.334,0.186,0.557,0.186c0.274,0,0.48-0.082,0.616-0.245c0.137-0.163,0.206-0.382,0.206-0.655  c0-0.267-0.07-0.48-0.211-0.638C8.803,9.897,8.618,9.82,8.388,9.823c-0.14,0.004-0.25,0.022-0.332,0.056  C7.974,9.913,7.898,9.96,7.831,10.022l0.1-0.963h1.123V8.853H7.742l-0.15,1.479L7.771,10.362z M9.764,9.033v0.514H9.417v0.182h0.347  v1.308c0,0.193,0.039,0.334,0.118,0.423s0.188,0.134,0.33,0.134c0.053,0,0.106-0.004,0.16-0.013  c0.053-0.009,0.098-0.021,0.135-0.037l-0.033-0.165c-0.044,0.007-0.084,0.012-0.118,0.016c-0.035,0.003-0.069,0.005-0.105,0.005  c-0.079,0-0.143-0.028-0.19-0.083c-0.047-0.055-0.071-0.148-0.071-0.279V9.729h0.442V9.547H9.989V9.033H9.764z M11.125,8.66h-0.223  v2.895h0.223v-1.417c0.048-0.132,0.123-0.239,0.225-0.319c0.102-0.08,0.229-0.12,0.381-0.12c0.151,0,0.269,0.047,0.355,0.142  c0.086,0.095,0.129,0.251,0.129,0.469v1.244h0.223v-1.238c0-0.276-0.057-0.479-0.17-0.611c-0.113-0.131-0.275-0.197-0.487-0.197  c-0.148,0-0.278,0.033-0.39,0.1s-0.2,0.16-0.267,0.28V8.66z"/>
    </symbol>
    <symbol viewbox="0 0 20 20" id="calendar">
        <path class="st0" d="M17.6,18.9H2.4c-0.8,0-1.4-0.6-1.4-1.4V4.3c0-0.8,0.6-1.4,1.4-1.4h15.2c0.8,0,1.4,0.6,1.4,1.4v13.2
    C18.9,18.2,18.3,18.9,17.6,18.9z"/>
        <path class="st0" d="M5.1,5c0.2,0,0.4-0.3,0.4-0.7V1.4c0-0.4-0.2-0.7-0.4-0.7c-0.2,0-0.4,0.3-0.4,0.7v2.9C4.7,4.7,4.9,5,5.1,5L5.1,5
     M14.4,5c0.2,0,0.4-0.3,0.4-0.7V1.4c0-0.4-0.2-0.7-0.4-0.7c-0.2,0-0.4,0.3-0.4,0.7v2.9C14.1,4.7,14.2,5,14.4,5L14.4,5"/>
        <path class="st0" d="M5,11.7c0.1-0.2,0.2-0.4,0.4-0.6C5.7,11,6,11,6.3,11c0.4,0,0.7,0.1,0.9,0.4c0.2,0.3,0.3,0.6,0.3,1.1
    c0,0.5-0.1,0.9-0.3,1.2c-0.2,0.3-0.6,0.4-1,0.4c-0.4,0-0.7-0.1-0.9-0.3C5.1,13.5,5,13.2,5,12.8H4.6l0,0c0,0.5,0.1,1,0.5,1.2
    c0.3,0.3,0.7,0.4,1.2,0.4c0.6,0,1.1-0.2,1.4-0.5c0.3-0.4,0.5-0.9,0.5-1.5c0-0.6-0.2-1.1-0.5-1.4c-0.3-0.4-0.7-0.5-1.2-0.5
    c-0.3,0-0.6,0-0.7,0.1c-0.2,0.1-0.4,0.2-0.5,0.3l0.2-2.2h2.5V8.4H5l-0.3,3.3L5,11.7z M9.5,8.8v1.1H8.7v0.4h0.8v2.9
    c0,0.4,0.1,0.7,0.3,0.9c0.2,0.2,0.4,0.3,0.7,0.3c0.1,0,0.2,0,0.4,0c0.1,0,0.2,0,0.3-0.1L11.1,14c-0.1,0-0.2,0-0.3,0
    c-0.1,0-0.2,0-0.2,0c-0.2,0-0.3-0.1-0.4-0.2C10,13.7,10,13.5,10,13.2v-2.9h1V9.9h-1V8.8H9.5z M12.5,7.9H12v6.5h0.5v-3.2
    c0.1-0.3,0.3-0.5,0.5-0.7c0.2-0.2,0.5-0.3,0.9-0.3c0.3,0,0.6,0.1,0.8,0.3c0.2,0.2,0.3,0.6,0.3,1v2.8h0.5v-2.8c0-0.6-0.1-1.1-0.4-1.4
    C14.8,10,14.5,9.8,14,9.8c-0.3,0-0.6,0.1-0.9,0.2c-0.3,0.1-0.4,0.4-0.6,0.6L12.5,7.9L12.5,7.9z"/>
    </symbol>

    <symbol id="log-out" viewbox="0 0 20 20">
        <path style=" stroke-miterlimit:10; stroke-linejoin:round" d="
    	M18.744,18.051l0.01,0c0,0,0.888-5.257-2.1-8.492c-1.677-1.816-4.021-3.006-6.979-3.164L9.649,2.34L0.878,8.621l8.692,6.756
    	l-0.004-4.298C18.029,11.485,18.744,18.051,18.744,18.051z"/>
    </symbol>


    <symbol id="fb-messenger" viewBox="96 93 322 324">

        <path d="M257,93c-88.918,0-161,67.157-161,150c0,47.205,23.412,89.311,60,116.807V417l54.819-30.273	C225.449,390.801,240.948,393,257,393c88.918,0,161-67.157,161-150S345.918,93,257,93z M273,295l-41-44l-80,44l88-94l42,44l79-44	L273,295z"/>

    </symbol>

    <symbol id="email-round" viewbox="0 0 20 20">
        <circle style="fill:currentFill;stroke-linecap:round;stroke-linejoin:round;stroke-miterlimit:10;" cx="10" cy="10" r="9"/>
        <path fill="currentColor" d=" M14.864,13.438H5.136V6.562h9.728V13.438z M14.863,7.52l-2.72,2.343l-0.744,0.65c-0.159,0.136-0.312,0.28-0.483,0.4
	c-0.493,0.347-1.162,0.348-1.622,0.024C8.835,10.614,8.02,9.863,8.02,9.863l-2.881-2.34 M11.824,10.142l3.035,2.769 M8.326,10.142
	l-3.187,2.739"/>
    </symbol>


    <symbol id="phone-round" viewbox="0 0 20 20">
        <circle style="fill:currentFill;stroke-linecap:round;stroke-linejoin:round;stroke-miterlimit:10;" cx="10" cy="10" r="9"/>
        <path fill="currentColor" d=" M12.937,14.744c-0.066,0.013-0.133,0.004-0.198-0.01c-2.21-0.461-3.997-2.189-5.443-3.837c-0.765-0.873-1.56-1.876-1.885-3.009
	C5.337,7.63,5.245,7.332,5.251,7.061c0.009-0.427,1.27-1.663,1.673-1.782C7.364,5.148,7.619,5.484,7.843,5.82
	c0.327,0.492,0.712,0.982,0.994,1.499c0.38,0.695-0.306,0.969-0.401,1.582C8.382,9.256,8.95,9.716,9.198,9.985
	c0.405,0.439,0.837,0.853,1.293,1.238c0.346,0.292,0.36,0.435,0.718,0.281c0.453-0.195,0.858-0.624,1.379-0.395
	c0.515,0.227,1.003,0.666,1.476,0.974c0.368,0.24,0.791,0.487,0.662,0.98C14.61,13.504,13.54,14.625,12.937,14.744z"/>
    </symbol>

    <symbol id="box-round" viewbox="0 0 20 20">
        <circle style="fill:currentFill;stroke-linecap:round;stroke-linejoin:round;stroke-miterlimit:10;" cx="10" cy="10" r="9"/>
        <path fill="currentColor" d=" M15.147,12.966L10,15.942l-5.147-2.976V7.034L10,4.058l5.147,2.976V12.966z M10.007,9.991L4.853,7.034 M10.001,9.966v5.975
	 M10.007,9.991l5.14-2.957 M6.752,5.937l5.229,2.922l0.009,2.211l1.295-0.761V8.111L8.056,5.18"/>
    </symbol>

    <symbol id="money-bag-round" viewbox="0 0 20 20">
        <circle style="fill:currentFill;stroke-linecap:round;stroke-linejoin:round;stroke-miterlimit:10;" cx="10" cy="10" r="9"/>
        <g>
            <g>
                <path style="fill:none;" d="M5.483,15.562
				l1.824-1.131l2.071,0.879l0.258,0.112c0.223,0.101,0.491,0.093,0.714-0.045l3.922-2.431c0.355-0.22,0.465-0.691,0.245-1.045
				c-0.22-0.355-0.69-0.465-1.045-0.245l-1.154,0.716"/>
            </g>
            <path style="fill:none;" d="M5.37,13.19l1.846-0.982
		c0.12-0.064,0.24-0.117,0.381-0.117h4.168c0.226,0,0.426,0.111,0.551,0.281c0.084,0.114,0.134,0.253,0.134,0.404
		c0,0.377-0.308,0.685-0.685,0.685h-1.656"/>
            <path style="fill:none;" d="M10.942,6.803H9.063
		c-0.256,0-0.465-0.209-0.465-0.465v0c0-0.256,0.209-0.465,0.465-0.465h1.879c0.256,0,0.465,0.209,0.465,0.465v0
		C11.407,6.594,11.198,6.803,10.942,6.803z"/>
            <path style="fill:none;" d="M11.135,5.916
		l0.666-1.117c0.027-0.037,0.038-0.084,0.03-0.13c-0.008-0.046-0.034-0.086-0.072-0.112c-0.346-0.24-0.745-0.087-1.037,0.2
		c-0.166-0.163-0.481-0.295-0.72-0.295c-0.238,0-0.532,0.132-0.698,0.295C9.013,4.47,8.591,4.317,8.244,4.554
		C8.172,4.604,8.156,4.713,8.198,4.79l0.626,1.151"/>
            <path style="fill:none;" d="M8.814,6.749
		c-0.283,0.283-1.139,1.139-1.32,1.366c-0.497,0.622-0.759,1.373-0.759,2.171c0,0.642,0.247,1.369,0.552,1.886"/>
            <path style="fill:none;" d="M12.842,12.046
		c0.253-0.457,0.475-1.249,0.475-1.76c0-0.799-0.263-1.55-0.761-2.173c-0.186-0.233-1.074-1.084-1.37-1.366"/>
            <path style="fill:none;" d="M10.079,10.613"/>

            <line style="fill:none;" x1="10.079" y1="8.303" x2="10.079" y2="8.713"/>

            <line style="fill:none;" x1="10.079" y1="10.625" x2="10.079" y2="11.035"/>
            <path style="fill:none;" d="M9.555,10.154
		c0,0,0.043,0.471,0.524,0.471c0.21,0,0.335-0.076,0.411-0.167c0.152-0.182,0.134-0.462-0.041-0.622
		c-0.078-0.071-0.194-0.139-0.37-0.167c-0.176-0.028-0.303-0.096-0.38-0.167c-0.175-0.159-0.193-0.44-0.041-0.622
		c0.076-0.091,0.212-0.167,0.421-0.167c0.482,0,0.514,0.471,0.514,0.471"/>
        </g>
    </symbol>

    <symbol id="cut-diamond-round" viewbox="0 0 20 20">
        <circle style="fill:currentFill;stroke-linecap:round;stroke-linejoin:round;stroke-miterlimit:10;" cx="10" cy="10" r="9"/>

        <path style="fill:currentColor;" d=" M15.828,9.225c0-0.009-0.008-0.063-0.016-0.082
	l-1.625-2.818c-0.033-0.077-0.109-0.128-0.194-0.128H6.007c-0.085,0-0.162,0.051-0.194,0.128L4.188,9.142
	C4.179,9.161,4.172,9.216,4.172,9.225c0,0.005,0.021,0.102,0.052,0.139l5.618,6.345c0.005,0.005,0.013,0.003,0.017,0.008
	c0.015,0.014,0.028,0.026,0.046,0.036c0.004,0.002,0.004,0.008,0.01,0.01c0.027,0.011,0.057,0.017,0.084,0.017
	c0.028,0,0.057-0.006,0.085-0.017c0.005-0.002,0.006-0.008,0.01-0.011c0.018-0.009,0.031-0.021,0.045-0.035
	c0.006-0.005,0.014-0.003,0.019-0.008l5.618-6.345C15.83,9.3,15.828,9.229,15.828,9.225z"/>
        <line style="fill:none;troke-width:0.6;" x1="4.18" y1="9.202" x2="15.822" y2="9.202"/>
        <polyline style="fill:none;" points="11.552,6.206 12.839,9.181
	12.839,9.219 10.024,15.804 "/>
        <polyline style="fill:none;" points="9.999,15.804 7.184,9.219 7.184,9.181
	8.471,6.206 "/>
        <line style="fill:none;stroke-linecap:round;stroke-linejoin:round;" x1="4.188" y1="14.5" x2="15.812" y2="5.5"/>
    </symbol>

    <symbol id="dollar" viewbox="0 0 20 20">
        <path d="M10,16.221"/>
        <line style="stroke-linecap:round;" x1="10" y1="1" x2="10" y2="3.705"/>
        <line style="stroke-linecap:round;" x1="10" y1="16.295" x2="10" y2="19"/>
        <path style="fill:none;stroke-linecap:round;" d="M6.579,13.194
	c0,0,0.282,3.101,3.454,3.101c1.383,0,2.21-0.501,2.71-1.101c0.998-1.198,0.883-3.046-0.269-4.096
	c-0.514-0.468-1.281-0.916-2.44-1.098C8.874,9.818,8.04,9.369,7.527,8.901c-1.153-1.05-1.268-2.898-0.27-4.096
	c0.5-0.599,1.393-1.101,2.776-1.101c3.173,0,3.388,3.101,3.388,3.101"/>

    </symbol>

    <symbol id="receipt" viewbox="0 0 20 20">
        <path d="M3.993,17.928V1.975
	c0-0.217,0.176-0.392,0.392-0.392h11.23c0.217,0,0.392,0.176,0.392,0.392v15.953c0,0.224-0.264,0.342-0.431,0.194l-1.399-1.635
	c-0.098-0.087-0.246-0.087-0.344,0l-1.658,1.865c-0.098,0.087-0.246,0.087-0.344,0l-1.658-1.865c-0.098-0.087-0.246-0.087-0.344,0
	L8.17,18.352c-0.098,0.087-0.246,0.087-0.344,0l-1.658-1.865c-0.098-0.087-0.246-0.087-0.344,0l-1.399,1.635
	C4.257,18.27,3.993,18.151,3.993,17.928z"/>
        <path style="stroke-linecap:round;" d="M13.627,4.775H6.373 M6.373,7.495h7.253 M13.627,10.215H6.373 M13.627,12.935H6.373"/>
    </symbol>

    <symbol id="hanger" viewbox="0 0 20 20">
        <path style="fill:none;stroke-linecap:round;stroke-linejoin:round;stroke-miterlimit:10;" d="M7.898,5.27
	c0-1.096,0.914-1.978,2.021-1.927c0.983,0.045,1.791,0.854,1.836,1.836c0.038,0.834-0.453,1.558-1.166,1.865
	c-0.463,0.199-0.762,0.657-0.762,1.162l0,0.766"/>
        <path style="stroke-miterlimit:10;" d="M13.343,10.278l4.153,1.275c0.018,0.006,0.035,0.013,0.052,0.02
	c0.805,0.348,1.349,1.117,1.409,1.993l0.042,0.608c0.028,0.41-0.382,0.708-0.763,0.555L9.836,11.85l-8.071,2.636
	c-0.388,0.156-0.802-0.155-0.762-0.571l0.061-0.63c0.082-0.849,0.619-1.586,1.399-1.925c0.02-0.009,0.041-0.016,0.061-0.023
	l3.785-1.104"/>
        <path style="stroke-linecap:round;stroke-linejoin:round;stroke-miterlimit:10;" d="M10.747,9.922
	c-0.001,0.518-0.427,0.935-0.955,0.933c-0.514-0.001-0.929-0.431-0.927-0.961C8.868,9.384,9.293,8.97,9.812,8.972
	C10.336,8.973,10.749,9.392,10.747,9.922z M9.263,9.153c-0.32-0.197-0.755-0.465-1.106-0.596c-0.435-0.162-0.884-0.263-1.346-0.31
	C6.691,8.235,6.639,8.26,6.596,8.373C6.35,9.022,6.235,9.688,6.326,10.384c0.049,0.375,0.14,0.738,0.278,1.09
	c0.031,0.078,0.083,0.112,0.168,0.103c0.152-0.017,0.472-0.111,0.441-0.105c0,0,0.581-0.153,1.074-0.373
	c0.493-0.219,0.93-0.452,0.93-0.452 M10.413,10.632c0,0,0.463,0.247,0.956,0.467c0.493,0.219,1.074,0.373,1.074,0.373
	c-0.031-0.006,0.289,0.088,0.441,0.105c0.084,0.009,0.137-0.025,0.168-0.103c0.138-0.352,0.229-0.715,0.278-1.09
	c0.091-0.695-0.025-1.362-0.271-2.011c-0.043-0.113-0.095-0.137-0.215-0.125c-0.462,0.047-0.911,0.148-1.346,0.31
	c-0.352,0.131-0.798,0.411-1.118,0.607"/>
    </symbol>

    <symbol id="heart-lightbulb" viewbox="0 0 20 20">
        <path d="M12.6,18.3c0-0.9,0-3.2,0-3.2s1-0.2,1-1.8c0-0.8,0-1.4,0.9-2.6s1.8-2.2,1.8-4.5c0-3-2.6-5.6-6.2-5.6
        c-3.6,0-6.2,2.5-6.2,5.6c0,2.2,0.9,3.2,1.8,4.5s0.9,1.8,0.9,2.6c0,1.6,1,1.8,1,1.8s0,2.3,0,3.2c0,0.5,1.2,1.3,2.6,1.3
        S12.6,18.8,12.6,18.3z"/>
        <path d="M7.5,15c1.6,0.4,3.5,0.5,5.1,0"/>
        <path d="M8.7,17.2c1.3,0.2,1.3,0.2,2.5,0"/>
        <path style="fill:currentColor" d="M10,15.3c0,0,0.6-3.6,2.1-5.4s1-4.2-0.4-4.2S10,8.1,10,8.1S9.6,5.7,8.2,5.7S6.4,8.1,7.9,9.9S10,15.3,10,15.3z"
                />
    </symbol>

    <symbol id="curved-arrow" viewbox="0 0 20 20">
        <path style="fill:none;" d="M11.7,1.9c-6,5.7-5.1,11.3,0.8,16.3"/>
        <polyline style="fill:none;" points="9.8,18.1 12.4,18.1 12.4,15.5 "/>
    </symbol>

    <symbol id="activewear" viewbox="0 0 100 20">
        <path style="stroke:none;" d="M11.6,15.5H9.4l0.6-3.3H6.2l1-2.2h3.2l0.4-2.5c0.1-0.5-0.2-0.8-0.7-0.8h-3c-0.4,0-0.9,0.4-1,0.8l-1.4,8H2.6l1.4-8
        c0.3-1.6,1.8-2.9,3.4-2.9h3.1c1.6,0,2.7,1.3,2.4,2.9L11.6,15.5z"/>
        <path style="stroke:none;" d="M21,13.3l-0.4,2.1h-4.6c-1.6,0-2.7-1.3-2.4-2.9l0.9-5.1c0.3-1.6,1.8-2.9,3.4-2.9h4.6l-1,2.2h-3.9c-0.4,0-0.9,0.4-1,0.8
        l-0.9,5c-0.1,0.4,0.2,0.8,0.7,0.8H21z"/>
        <path style="stroke:none;" d="M31.4,6.7h-3.2l-1.5,8.8h-2.1l1.3-7.7l1.3-1.1H23l0.4-2.2h8.5L31.4,6.7z"/>
        <path style="stroke:none;" d="M31,15.5l1.9-11h2.1l-1.9,11H31z"/>
        <path style="stroke:none;" d="M45.1,4.5l-4.9,11H37l-1-11h2.2l0.8,8.7l3.9-8.7H45.1z"/>
        <path style="stroke:none;" d="M53.2,8.9l-0.4,2.2h-5.5l-0.2,1.4c-0.1,0.4,0.2,0.8,0.7,0.8h4.7l-0.4,2.1h-4.7c-1.6,0-2.7-1.3-2.4-2.9l0.9-5.1
        c0.3-1.6,1.8-2.9,3.4-2.9H54l-1,2.2h-4c-0.4,0-0.9,0.4-1,0.8L47.5,10l1.3-1.1H53.2z"/>
        <path style="stroke:none;" d="M67.7,4.5l-4.3,11h-2.6l-0.2-6.3l-2.4,6.3h-2.6l-0.4-11h2.2l0.3,6.8l2.7-6.8h0h2.1h0.1l0.2,6.8l2.7-6.8H67.7z"/>
        <path style="stroke:none;" d="M76.1,8.9l-0.4,2.2h-5.5L70,12.5c-0.1,0.4,0.2,0.8,0.7,0.8h4.7l-0.4,2.1h-4.7c-1.6,0-2.7-1.3-2.4-2.9l0.9-5.1
        c0.3-1.6,1.8-2.9,3.4-2.9h4.7l-1,2.2h-4c-0.4,0-0.9,0.4-1,0.8L70.4,10l1.3-1.1H76.1z"/>
        <path style="stroke:none;" d="M85.4,15.5h-2.2l0.6-3.3H80l1-2.2h3.2l0.4-2.5C84.7,7,84.4,6.7,84,6.7h-3c-0.4,0-0.9,0.4-1,0.8l-1.4,8h-2.1l1.4-8
        c0.3-1.6,1.8-2.9,3.4-2.9h3.1c1.6,0,2.7,1.3,2.4,2.9L85.4,15.5z"/>
        <path style="stroke:none;" d="M93.8,15.5l-1.3-3.3h-1.9l1-2.2h2.3c0.5,0,0.9-0.4,1-0.8l0.3-1.7c0.1-0.5-0.2-0.8-0.7-0.8h-3.8l-1.5,8.8H87l1.9-11h6
        c1.6,0,2.7,1.3,2.4,2.9c0,0,0,0,0,0L97,9.3c0,0,0,0,0,0c-0.2,1.2-1.1,2.2-2.2,2.6l1.4,3.6H93.8z M97,9.3L97,9.3
        C97,9.3,97,9.3,97,9.3z M97.3,7.4L97.3,7.4C97.3,7.4,97.3,7.4,97.3,7.4z"/>
    </symbol>

    <symbol id="vheart" viewbox="0 0 20 20">
      <path d="M2.3,18.1c1.7-1,3.5-1.9,5.3-2.9c1.1-0.6,2.3-1.1,3.4-1.6c1.3-0.6,2.3-1.1,3.1-1.8c0.1-0.1,0.3-0.2,0.4-0.3
        c0.1-0.1,0.2-0.2,0.3-0.2c0.2-0.2,0.5-0.4,0.7-0.6c0.5-0.4,0.8-0.9,1.1-1.3C17,9,17.1,8.5,17,8.2C17,8.1,17,8,16.9,8
        c-0.1-0.1-0.3-0.1-0.5-0.1c0,0-0.1,0-0.1,0c-0.5,0-1,0.2-1.3,0.3c-0.5,0.2-1,0.5-1.5,0.8c-0.9,0.6-1.8,1.4-2.7,2.3
        c-0.2,0.2-0.4,0.3-0.6,0.3c-0.2,0-0.4-0.1-0.6-0.2c-0.2-0.2-0.3-0.6-0.2-0.9C9.6,9.5,9.9,8.5,10,7.6c0.1-1,0.1-1.9-0.1-2.7
        C9.7,4.5,9.6,4.1,9.4,3.9C9.1,3.5,8.9,3.3,8.5,3.2C8.3,3.1,8,3.1,7.7,3.1c-0.1,0-0.3,0-0.4,0C6.9,3.2,6.5,3.3,6.1,3.5
        c-0.9,0.4-1.4,1-1.7,1.8C4.2,5.9,4.2,6.8,4.4,8c0.3,1.5,0.9,2.9,1.4,4.2c-0.3-0.5-0.5-0.9-0.8-1.3C4.6,10,4.2,9.1,3.9,8.2
        C3.6,7.4,3.3,6.3,3.5,5c0.1-0.6,0.4-1.1,0.7-1.5C4.6,3.1,5,2.7,5.6,2.4c0.5-0.3,1-0.4,1.6-0.5C7.4,1.8,7.7,1.8,8,1.8
        c0.3,0,0.7,0,1,0.1c0.6,0.2,1.1,0.5,1.5,1.1c0.3,0.4,0.6,0.9,0.8,1.6c0.3,1,0.4,2,0.3,3.2l0,0.3l0.2,0c0.2-0.2,0.5-0.4,0.8-0.5
        c0.6-0.4,1.2-0.7,1.8-0.9c0.7-0.2,1.3-0.4,1.8-0.4c0.1,0,0.2,0,0.4,0c0.3,0,0.8,0.1,1.3,0.4C18,6.8,18.2,7,18.3,7.2
        c0.1,0.2,0.2,0.5,0.3,0.7c0.1,0.4,0,0.9-0.1,1.3c-0.1,0.3-0.3,0.6-0.5,1c-0.8,1.2-2,2-3,2.7c-1,0.6-2.1,1.2-3.5,1.7l-1.2,0.5
        c-0.8,0.3-1.5,0.6-2.3,0.8c-1.3,0.5-2.6,1-4,1.5C3.4,17.7,2.9,17.9,2.3,18.1z"/>
      <path d="M8,1.9L8,1.9c0.3,0,0.6,0,0.9,0.1c0.5,0.1,1.1,0.5,1.5,1C10.7,3.5,11,4,11.1,4.6c0.3,1,0.4,2,0.2,3.2l0,0.1l0,0.1l-0.1,0.6
        l0.5-0.3c0.3-0.2,0.5-0.4,0.8-0.5c0.6-0.4,1.2-0.7,1.8-0.9c0.7-0.2,1.2-0.4,1.8-0.4c0.1,0,0.2,0,0.3,0c0.5,0.1,0.9,0.2,1.2,0.4
        c0.2,0.1,0.4,0.3,0.5,0.5c0.1,0.2,0.2,0.4,0.3,0.7c0.1,0.4,0,0.8-0.1,1.2c-0.1,0.3-0.3,0.6-0.5,1c-0.8,1.2-2,2-3,2.6
        c-1,0.6-2.1,1.2-3.4,1.7c-0.4,0.2-0.8,0.3-1.2,0.5c-0.8,0.3-1.5,0.6-2.3,0.8c-1.3,0.5-2.7,1-4,1.5c0,0,0,0,0,0
        c1.2-0.7,2.5-1.3,3.8-2c1.1-0.6,2.3-1.1,3.4-1.6c1.3-0.6,2.3-1.1,3.2-1.8c0.1-0.1,0.3-0.2,0.4-0.3c0.1-0.1,0.2-0.2,0.3-0.2
        c0.3-0.2,0.5-0.4,0.7-0.6c0.5-0.4,0.9-0.9,1.1-1.3c0.3-0.4,0.5-1,0.4-1.3C17.1,8,17,7.9,16.9,7.9c-0.1-0.1-0.3-0.1-0.6-0.2
        c0,0-0.1,0-0.2,0c-0.5,0-1,0.2-1.4,0.3c-0.5,0.2-1,0.5-1.5,0.8c-0.9,0.6-1.9,1.4-2.7,2.3c-0.1,0.1-0.3,0.2-0.5,0.2
        c-0.2,0-0.3-0.1-0.5-0.2c-0.2-0.2-0.3-0.5-0.2-0.7c0.3-0.9,0.6-1.8,0.7-2.7c0.1-1.1,0.1-2-0.1-2.7C9.9,4.5,9.7,4.1,9.5,3.8
        C9.2,3.5,8.9,3.2,8.6,3.1C8.3,3,8.1,3,7.7,3C7.6,3,7.5,3,7.3,3C6.9,3,6.5,3.2,6,3.3c-0.9,0.4-1.5,1-1.7,1.9C4.1,5.9,4.1,6.8,4.3,8
        c0.2,0.9,0.5,1.8,0.8,2.7C4.7,9.8,4.3,9,4,8.1C3.7,7.4,3.4,6.3,3.7,5.1C3.8,4.5,4,4,4.4,3.6c0.3-0.4,0.8-0.7,1.3-1
        c0.5-0.3,1-0.4,1.5-0.5C7.5,2,7.7,1.9,8,1.9 M8,1.7c-0.3,0-0.6,0-0.8,0.1C6.6,1.9,6.1,2.1,5.5,2.3C5,2.6,4.5,2.9,4.2,3.4
        C3.8,3.9,3.5,4.4,3.4,5c-0.2,1.1,0,2.2,0.3,3.2c0.3,1,0.8,1.9,1.2,2.8c0.5,0.9,1,1.7,1.6,2.5C5.8,11.7,5,9.9,4.6,8
        C4.4,7,4.3,6.1,4.5,5.3c0.2-0.8,0.8-1.4,1.6-1.7C6.5,3.4,7,3.3,7.4,3.2c0.1,0,0.3,0,0.4,0c0.3,0,0.5,0,0.7,0.1
        c0.3,0.1,0.6,0.3,0.8,0.6C9.5,4.2,9.6,4.6,9.7,5c0.2,0.8,0.2,1.7,0.1,2.6c-0.1,0.9-0.3,1.8-0.6,2.7c-0.1,0.3,0,0.7,0.2,1
        c0.2,0.2,0.4,0.3,0.6,0.3c0.2,0,0.5-0.1,0.7-0.3l0,0c0.8-0.9,1.7-1.6,2.7-2.3c0.5-0.3,1-0.6,1.5-0.8c0.4-0.2,0.9-0.3,1.3-0.3
        c0,0,0.1,0,0.1,0c0.2,0,0.4,0.1,0.4,0.1c0.1,0.1,0.1,0.1,0.1,0.2c0.1,0.2-0.1,0.7-0.3,1.1c-0.3,0.4-0.7,0.9-1.1,1.2
        c-0.2,0.2-0.4,0.4-0.7,0.6c-0.2,0.2-0.5,0.4-0.7,0.6c-1,0.7-2,1.3-3.1,1.8c-1.1,0.5-2.3,1.1-3.4,1.6c-2.3,1.1-4.5,2.3-6.6,3.6
        c2.4-0.9,4.7-1.9,7-2.7c1.2-0.5,2.3-0.9,3.5-1.3c1.2-0.4,2.4-1,3.5-1.7c1.1-0.7,2.2-1.5,3-2.7c0.2-0.3,0.4-0.6,0.5-1
        c0.1-0.4,0.2-0.9,0.1-1.4c0-0.3-0.1-0.5-0.3-0.8c-0.2-0.2-0.4-0.4-0.6-0.6c-0.4-0.3-0.9-0.4-1.3-0.5c-0.1,0-0.2,0-0.4,0
        c-0.7,0-1.3,0.2-1.9,0.4C13.6,6.7,13,7,12.4,7.4c-0.3,0.2-0.5,0.4-0.8,0.5c0,0,0-0.1,0-0.1c0.1-1.1,0.1-2.2-0.3-3.3
        C11.2,4,11,3.4,10.6,2.9C10.2,2.4,9.6,2,9,1.8C8.6,1.7,8.3,1.7,8,1.7L8,1.7z"/>
    </symbol>

    <symbol id="money" viewbox="0 0 20 20">
        <path class="st0" d="M12,5.5H7.9C7.4,5.5,7,5.2,7,4.7V4.5C7,4,7.4,3.6,7.9,3.6H12c0.5,0,0.9,0.4,0.9,0.9v0.2
            C12.9,5.2,12.5,5.5,12,5.5z"/>
        <path class="st0" d="M12.3,3.7l1.4-2.3c0.1-0.1,0.1-0.2,0.1-0.3c0-0.1-0.1-0.2-0.1-0.2c-0.7-0.5-1.6-0.2-2.2,0.4
            c-0.3-0.3-1-0.6-1.5-0.6S8.8,0.9,8.5,1.3C7.9,0.7,7,0.3,6.3,0.8C6.1,0.9,6.1,1.2,6.2,1.3l1.3,2.4"/>
        <path class="st0" d="M7.5,5.4C6.9,6,5.1,7.8,4.7,8.3c-1,1.3-1.6,2.9-1.6,4.5s1.1,6.6,6.9,6.6s6.8-5,6.8-6.6s-0.5-3.2-1.6-4.5
            C14.9,7.8,13,6,12.4,5.4"/>
        <path class="st0" d="M10.1,15.1"/>
        <line class="st0" x1="10.1" y1="8" x2="10.1" y2="9.3"/>
        <line class="st0" x1="10.1" y1="15.2" x2="10.1" y2="16.4"/>
        <path class="st0" d="M8.5,13.7c0,0,0.1,1.5,1.6,1.5c0.7,0,1-0.2,1.3-0.5c0.5-0.6,0.4-1.4-0.1-1.9c-0.2-0.2-0.6-0.4-1.1-0.5
            s-0.9-0.3-1.2-0.5c-0.5-0.5-0.6-1.4-0.1-1.9C9,9.5,9.5,9.3,10.1,9.3c1.5,0,1.6,1.5,1.6,1.5"/>
    </symbol>

    <symbol id="sad-face" viewbox="0 0 20 20">
        <circle class="st0" cx="10" cy="10" r="9.5"/>
        <g>
            <circle class="st0" cx="6" cy="7" r="0.5"/>
            <circle class="st0" cx="14" cy="7" r="0.5"/>
        </g>
        <path class="st1" d="M14.4,13.9c-3.2-3.1-5.7-2.9-8.8,0"/>
        <path d="M4.2,14.9"/>
        <path d="M15.8,14.9"/>
    </symbol>

    <symbol id="straight-face" viewbox="0 0 20 20">
        <circle class="st0" cx="10" cy="10" r="9.5"/>
        <g>
            <circle class="st0" cx="6" cy="7" r="0.5"/>
            <circle class="st0" cx="14" cy="7" r="0.5"/>
        </g>
        <path d="M4.2,14.9"/>
        <path d="M15.8,14.9"/>
        <line class="st1" x1="6.5" y1="13.1" x2="13.5" y2="13.1"/>
    </symbol>

    <symbol id="happy-face" viewbox="0 0 20 20">
        <circle class="st0" cx="10" cy="10" r="9.5"/>
        <g>
            <circle class="st0" cx="6" cy="7" r="0.5"/>
            <circle class="st0" cx="14" cy="7" r="0.5"/>
        </g>
        <path d="M4.2,14.9"/>
        <path d="M15.8,14.9"/>
        <path class="st0" d="M14.3,12.3c0.3,0,0.5,0.3,0.3,0.5c-0.5,1-1.9,3.1-4.6,3.1c-2.6,0-4-2.1-4.6-3.1c-0.1-0.3,0-0.5,0.3-0.5H14.3z"
            />
        <path class="st0" d="M13.5,12.6c0.2,0,0.4,0.2,0.2,0.5c-0.5,0.8-1.6,2.6-3.8,2.6c-2.1,0-3.3-1.7-3.8-2.6c-0.1-0.2,0-0.5,0.2-0.5
            H13.5z"/>
        <path class="st0" d="M12.6,13c0.2,0,0.3,0.2,0.2,0.3c-0.3,0.6-1.2,1.9-2.8,1.9c-1.6,0-2.5-1.3-2.8-1.9c-0.1-0.2,0-0.3,0.2-0.3H12.6z
            "/>
        <path class="st0" d="M11.5,13.4c0.1,0,0.2,0.1,0.1,0.2c-0.2,0.4-0.7,1.1-1.6,1.1c-0.9,0-1.4-0.7-1.6-1.1c0-0.1,0-0.2,0.1-0.2H11.5z"
            />
        <path class="st0" d="M11.1,13.6c0.1,0,0.1,0.1,0.1,0.1C11,14,10.7,14.5,10,14.5c-0.6,0-1-0.5-1.1-0.8c0-0.1,0-0.1,0.1-0.1H11.1z"/>
    </symbol>
    <symbol id="youtube" viewbox="0 0 20 20">
      <path d="M18.6,5.6C18.4,4.9,17.8,4.2,17,4c-1.4-0.4-7-0.4-7-0.4S4.4,3.7,3,4C2.2,4.2,1.6,4.9,1.4,5.6C1,7.1,1,10,1,10
s0,2.9,0.4,4.4C1.6,15.1,2.2,15.8,3,16c1.4,0.4,7,0.4,7,0.4s5.6,0,7-0.4c0.8-0.2,1.4-0.8,1.6-1.6C19,12.9,19,10,19,10
S19,7.1,18.6,5.6z M8.2,12.7V7.3l4.7,2.7L8.2,12.7z"/>
    </symbol>
    <symbol id="snapchat" viewbox="0 0 20 20">
      <path d="M10.1,18H10l0,0H9.9c-1,0-1.7-0.5-2.3-0.9c-0.4-0.3-0.8-0.6-1.3-0.7c-0.2,0-0.5-0.1-0.7-0.1
  		c-0.4,0-0.7,0.1-1,0.1c-0.1,0-0.3,0.1-0.4,0.1S4,16.5,4,16.3c0-0.1-0.1-0.3-0.1-0.4c-0.1-0.3-0.1-0.5-0.3-0.5
  		c-1.6-0.2-2.1-0.6-2.2-0.8v-0.1c0-0.1,0.1-0.2,0.2-0.2c2.5-0.4,3.6-2.9,3.6-3l0,0c0.2-0.3,0.2-0.6,0.1-0.8
  		c-0.2-0.4-0.7-0.6-1.1-0.7c0-0.1-0.1-0.1-0.2-0.1C3.3,9.4,3.2,9.1,3.3,9c0-0.3,0.4-0.4,0.7-0.4c0.1,0,0.1,0,0.2,0
  		C4.5,8.7,4.8,8.8,5,8.8c0.4,0,0.5-0.1,0.5-0.2c0-0.2,0-0.3,0-0.5C5.4,7,5.3,5.5,5.7,4.7C6.8,2.2,9.1,2,9.8,2h0.3l0,0
  		c0.7,0,3,0.2,4.1,2.7c0.4,0.8,0.3,2.3,0.2,3.4v0.1c0,0.2,0,0.3,0,0.5c0,0,0.2,0.2,0.5,0.2l0,0c0.2,0,0.5-0.1,0.8-0.2
  		c0.1,0,0.2-0.1,0.3-0.1c0.1,0,0.2,0,0.3,0.1l0,0c0.2,0.1,0.4,0.3,0.4,0.4c0,0.2-0.1,0.4-0.8,0.7c-0.1,0-0.2,0.1-0.2,0.1
  		c-0.4,0.1-0.9,0.3-1.1,0.7c-0.1,0.2-0.1,0.5,0.1,0.8l0,0c0,0.1,1.1,2.6,3.6,3c0.1,0,0.2,0.1,0.2,0.2v0.1c-0.1,0.2-0.6,0.6-2.2,0.8
  		c-0.1,0-0.2,0.2-0.3,0.5c0,0.1-0.1,0.3-0.1,0.4s-0.1,0.2-0.2,0.2l0,0c-0.1,0-0.2,0-0.4,0c-0.3-0.1-0.6-0.1-1-0.1
  		c-0.2,0-0.5,0-0.7,0.1c-0.5,0.1-0.9,0.4-1.3,0.7C11.8,17.5,11.1,18,10.1,18z"/>
    </symbol>
    <symbol id="bell" viewbox="0 0 20 20">
        <path d="M17.8,16.9c0.1-0.6-0.1-1.6-0.6-1.9c-0.8-0.5-1-0.8-1.3-1.6c-0.4-0.9-0.6-1.8-0.7-2.8c-0.1-1.1-0.3-2.2-0.6-3.3
    	c-0.4-1.4-1.2-2.5-2.6-3c-1-0.4-2-0.4-3-0.3C7.4,4.2,6.2,5.1,5.6,6.6C5.4,7.3,5.2,8.1,5.1,8.8c-0.2,0.8-0.2,1.7-0.4,2.5
    	c-0.1,0.7-0.3,1.3-0.5,2c-0.3,0.9-0.6,1.2-1.4,1.7c-0.5,0.3-0.6,1.3-0.5,1.9C7.6,16.9,12.4,16.9,17.8,16.9z"></path>
        <path d="M9,3.9V3.2c0-0.5,0.4-1,1-1c0.5,0,1,0.4,1,1v0.7" fill="none"></path>
        <path d="M8.3,16.9c0,0.9,0.8,1.7,1.7,1.7c0.9,0,1.7-0.8,1.7-1.7" fill="none"></path>
    </symbol>
    <symbol id="info" viewbox="0 0 20 20">
        <path d="M10,19.063c-4.962,0-9-4.037-9-9c0-4.962,4.038-9,9-9c4.963,0,9,4.038,9,9C19,15.026,14.963,19.063,10,19.063z M10,2.063
            c-4.411,0-8,3.589-8,8s3.589,8,8,8s8-3.589,8-8S14.411,2.063,10,2.063z"></path>
        <path d="M12.145,15.275c-0.331-0.055-0.587-0.122-0.76-0.196c-0.088-0.037-0.088-0.067-0.088-0.111V9.897
            c0-0.371,0.018-0.672,0.054-0.895c0.042-0.26,0.063-0.478,0.063-0.667c0-0.369-0.256-0.618-0.636-0.618
            c-0.138,0-0.328,0.029-0.598,0.093C9.951,7.863,9.69,7.914,9.411,7.959C9.222,7.983,8.98,8.003,8.686,8.021
            C8.392,8.039,8.163,8.048,8,8.048c-0.165,0-0.309,0.105-0.35,0.256C7.616,8.428,7.6,8.534,7.6,8.629
            c0,0.316,0.214,0.545,0.583,0.598c0.511,0.041,0.624,0.156,0.633,0.167C8.854,9.438,8.941,9.582,8.941,9.97v4.998
            c0,0.041,0,0.07-0.095,0.109c-0.181,0.075-0.43,0.142-0.753,0.2c-0.28,0.061-0.454,0.274-0.454,0.553
            c0,0.049,0.007,0.123,0.024,0.222l0.015,0.073c0,0.189,0.162,0.342,0.362,0.342c0.043,0,0.145-0.007,0.304-0.02
            c0.141-0.012,0.306-0.024,0.497-0.036c0.191-0.012,0.397-0.021,0.621-0.027c0.449-0.012,0.884-0.012,1.335,0
            c0.224,0.006,0.431,0.015,0.621,0.027c0.19,0.012,0.352,0.024,0.485,0.036c0.153,0.013,0.252,0.02,0.296,0.02
            c0.096,0,0.188-0.036,0.256-0.1c0.103-0.097,0.123-0.226,0.135-0.35c0.006-0.083,0.011-0.144,0.011-0.186
            C12.6,15.556,12.436,15.345,12.145,15.275z"></path>
        <circle cx="10.1" cy="4.798" r="1.266"/>
    </symbol>
</svg>