<svg xmlns="http://www.w3.org/2000/svg" viewbox="0 0 159 26" width="159" height="26">
        <path d="M80.5754702,13.167714 L77.7640271,13.167714 L77.7640271,0.880622016 L80.0722057,0.880622016 C84.6855636,0.880622016 86.4065003,2.51638162 86.4065003,7.46444945 C86.4065003,11.573943 84.6429751,13.167714 80.5754702,13.167714 L80.5754702,13.167714 Z M88.9828067,20.9224261 L83.7612125,13.167714 C87.4094303,12.1191962 89.7997867,10.0647494 89.7997867,6.70925277 C89.7997867,2.64174787 86.3207234,0.419346206 80.0722057,0.419346206 L74.7060504,0.419346206 L74.7060504,25.580772 L77.7640271,25.580772 L77.7640271,13.6289898 L80.5772697,13.6289898 L86.6998213,22.9804721 C88.0350618,25.019923 89.0062004,25.6653492 90.6839487,25.6653492 L92.9027513,25.6653492 L92.9027513,25.5393831 C91.6448899,24.7008089 90.9562753,23.8532371 88.9828067,20.9224261 L88.9828067,20.9224261 Z M130.771756,21.6278362 L121.573232,0.419346206 L117.615498,0.419346206 L117.615498,0.546511969 C118.491862,1.34489702 119.337034,2.87928391 120.089232,4.53303867 L120.089232,25.6653492 L120.635085,25.6653492 L120.635085,5.79090002 L129.401125,26.0000591 L129.735235,26.0000591 L138.375309,2.98845452 L138.375309,25.580772 L141.433285,25.580772 L141.433285,0.419346206 L138.750208,0.419346206 L130.771756,21.6278362 Z M102.60214,25.0355188 L98.9941113,25.0355188 L98.9941113,12.9571706 C101.257902,12.9571706 104.072344,13.041148 108.76908,13.4184464 L108.76908,11.9518413 C104.072344,12.3291397 101.257902,12.4131171 98.9941113,12.4131171 L98.9941113,0.964599407 L102.26623,0.964599407 C103.734035,0.964599407 107.015152,1.17394305 109.950761,2.26384961 L109.99275,2.26384961 L109.940564,0.419346206 L95.9355348,0.419346206 L95.9355348,25.580772 L110.317863,25.580772 L110.535004,23.4843364 L110.493015,23.4843364 C107.054141,24.7997822 104.111334,25.0355188 102.60214,25.0355188 L102.60214,25.0355188 Z M161.314333,23.4843364 C157.876058,24.7997822 154.933251,25.0355188 153.423457,25.0355188 L149.815429,25.0355188 L149.815429,12.9571706 C152.079819,12.9571706 154.893661,13.041148 159.590997,13.4184464 L159.590997,11.9518413 C154.893661,12.3291397 152.079819,12.4131171 149.815429,12.4131171 L149.815429,0.964599407 L153.088148,0.964599407 C154.555353,0.964599407 157.837069,1.17394305 160.772679,2.26384961 L160.814667,2.26384961 L160.762481,0.419346206 L146.757452,0.419346206 L146.757452,25.580772 L161.13978,25.580772 L161.356321,23.4843364 L161.314333,23.4843364 Z M59.4173666,25.5387833 C52.6235957,25.5387833 51.8671993,19.2062882 51.8671993,12.9997592 C51.8671993,6.79383 52.6235957,0.461334901 59.4173666,0.461334901 C66.2111375,0.461334901 66.9675339,6.79383 66.9675339,12.9997592 C66.9675339,19.2062882 66.2111375,25.5387833 59.4173666,25.5387833 L59.4173666,25.5387833 Z M59.4173666,5.90909091e-05 C52.7915505,5.90909091e-05 48.4739129,5.49338012 48.4739129,12.9997592 C48.4739129,20.5061382 52.7915505,26.0000591 59.4173666,26.0000591 C66.0431827,26.0000591 70.3608203,20.5061382 70.3608203,12.9997592 C70.3608203,5.49338012 66.0431827,5.90909091e-05 59.4173666,5.90909091e-05 L59.4173666,5.90909091e-05 Z M32.9494926,25.0775075 L28.9641655,25.0775075 L28.9641655,0.922610712 L31.3557216,0.922610712 C40.2885167,0.922610712 41.6735438,6.08062202 41.6735438,12.6644494 C41.6735438,19.5415979 40.3305054,25.0775075 32.9494926,25.0775075 L32.9494926,25.0775075 Z M31.6916312,0.419346206 L25.9061888,0.419346206 L25.9061888,25.580772 L32.9075039,25.580772 C40.5818377,25.580772 45.06743,19.8775075 45.06743,12.5384834 C45.06743,5.24204779 40.8337699,0.419346206 31.6916312,0.419346206 L31.6916312,0.419346206 Z M4.7630812,15.9827561 L9.89769881,4.12514849 L15.0437133,15.9827561 L4.7630812,15.9827561 Z M7.60511604,0.419346206 L7.6045162,0.546511969 C8.44608963,1.29031172 9.11311004,2.47139373 9.58158392,3.44313211 L-0.000236363636,25.580772 L0.606800203,25.580772 L4.51774726,16.5490036 L15.290247,16.5490036 L19.2083921,25.580772 L22.4727132,25.580772 L11.5622507,0.419346206 L7.60511604,0.419346206 Z" />
    </svg>